<svg width="2649" height="536" viewBox="0 0 2649 536" fill="none" xmlns="http://www.w3.org/2000/svg">
<path d="M0 0L55.1686 17.9225C110.338 35.175 220.677 72.025 331.015 116.077C441.354 160.8 551.693 214.4 662.031 214.4C772.37 214.4 882.708 160.8 993.047 142.878C1103.39 125.625 1213.72 142.375 1324.06 160.8C1434.4 179.225 1544.74 195.975 1655.07 169.677C1765.42 142.375 1875.76 72.025 1986.1 98.3225C2096.43 125.625 2206.77 249.575 2317.11 276.878C2427.45 303.175 2537.78 232.825 2592.96 196.477L2648.13 160.8V536H2592.96C2537.78 536 2427.45 536 2317.11 536C2206.77 536 2096.43 536 1986.1 536C1875.76 536 1765.42 536 1655.07 536C1544.74 536 1434.4 536 1324.06 536C1213.72 536 1103.39 536 993.047 536C882.708 536 772.37 536 662.031 536C551.693 536 441.354 536 331.015 536C220.677 536 110.338 536 55.1686 536H0V0Z" fill="#FBF1E6"/>
</svg>
