<svg width="1487" height="935" viewBox="0 0 1487 935" fill="none" xmlns="http://www.w3.org/2000/svg">
<path d="M428.184 439.212C477.952 471.228 523.283 518.462 535.012 573.302C547.058 628.144 525.502 690.593 493.486 747.97C461.468 805.347 418.674 857.018 367.32 868.747C315.966 880.159 255.736 850.995 197.724 825.952C139.713 800.592 83.604 779.353 49.0511 737.192C14.8151 695.031 2.1351 631.63 10.0601 569.498C17.6681 507.05 45.8811 445.869 92.48 413.218C139.396 380.567 204.698 376.446 264.294 383.103C324.208 389.76 378.414 407.195 428.184 439.212Z" fill="#FFDBB4"/>
<path fill-rule="evenodd" clip-rule="evenodd" d="M276.579 479.44L271.114 492.962L274.125 535.821L276.365 536.17C300.028 539.841 316.107 541.696 324.603 541.733L324.866 541.734C333.422 541.734 343.674 539.821 355.622 535.996L356.166 535.821L357.546 503.729H354.293L348.409 489.923L348.414 489.918C348.479 490.029 348.547 490.136 348.617 490.24C351.07 493.871 352.492 490.939 358.255 492.223C365.155 493.761 368.219 500.741 374.294 505.957C377.114 508.379 383.034 509.52 385.867 511.186L388.843 512.936C398.168 518.44 408.885 525.127 414.512 533.837C421.109 544.049 425.656 553.739 429.855 565.099C438.906 589.584 445.188 614.569 449.676 640.264C454.226 666.306 456.96 692.672 459.049 719.017C460.016 731.225 460.836 743.444 461.517 755.671L461.685 758.728C462.042 765.381 461.731 771.891 455.687 775.988C451.357 778.923 445.61 779.37 440.529 779.671L440.253 779.688C402.69 781.892 365.126 784.081 327.562 786.274L271.218 789.571C261.843 790.121 252.467 790.667 243.092 791.209L220.207 792.532C209.422 793.146 198.623 793.678 187.823 793.615C174.235 793.536 160.704 792.531 147.241 790.719L146.054 790.557C137.584 789.386 125.303 786.425 123.781 776.259C123.563 774.799 124.847 773.887 125.924 774.097C125.57 772.442 125.35 770.785 125.139 769.345C124.236 763.194 123.67 757.003 123.39 750.793C122.828 738.366 123.301 725.881 124.542 713.508C126.596 693.038 129.475 672.604 132.449 652.241L133.112 647.717C136.275 626.143 140.042 604.606 145.937 583.591C151.382 564.178 159.876 543.983 171.564 531.708C183.253 519.432 199.917 508.767 217.041 502.235C218.524 501.669 247.987 495.213 249.972 496.153L250.328 495.873C256.202 491.232 264.582 483.079 273.21 485.646L273.229 485.614C273.433 485.24 274.23 482.735 275.331 479.44H276.579Z" fill="#8FA7DF"/>
<path fill-rule="evenodd" clip-rule="evenodd" d="M282.81 461.443C289.946 452.389 297.468 449.51 308.583 450.185C316.121 449.915 323.639 451.874 330.021 456.199C335.869 459.258 341.055 463.467 344.757 468.887C347.923 473.52 345.517 484.969 348.409 489.923C348.381 490.462 348.366 490.953 348.366 491.397C348.366 495.684 351.347 500.467 357.309 505.748L357.546 505.957V537.107C347.523 540.192 335.114 541.734 320.319 541.734C305.744 541.734 290.585 539.285 274.841 534.387L274.125 534.162L271.114 500.307L274.125 490.939L274.124 483.092L275.288 479.582C277.348 473.411 280.502 464.372 282.81 461.443Z" fill="#694D3D"/>
<path fill-rule="evenodd" clip-rule="evenodd" d="M274.125 534.162C291.767 539.304 306.61 541.875 318.654 541.875C330.698 541.875 343.202 539.304 356.167 534.162L353.012 788.049L302.236 788.67L274.125 534.162Z" fill="#9FD8E5"/>
<path fill-rule="evenodd" clip-rule="evenodd" d="M187.01 645.018C186.815 644.651 187.269 644.321 187.57 644.586C194.41 650.593 197.991 660.241 198.742 669.159C199.537 678.615 198.409 688.406 197.978 697.859C197.498 708.388 197.067 718.921 196.482 729.445C195.887 740.122 195.247 750.796 194.698 761.476L193.463 785.5C193.331 788.06 193.616 791.209 192.634 793.598C191.113 797.302 186.593 796.729 185.644 793.633L185.614 793.531L185.527 793.598C184.689 790.808 185.317 787.494 185.459 784.61L186.753 758.362C187.667 739.809 188.482 721.256 189.464 702.707L189.798 696.524C190.257 688.201 190.609 679.898 190.892 671.577L190.984 668.803C191.252 660.448 191.039 652.561 187.01 645.018ZM352.822 491.001C356.633 490.639 359.511 491.904 362.97 493.236C364.477 493.816 365.904 494.486 367.35 495.18C369.16 496.049 370.324 497.584 371.439 499.208L372.035 500.083C376.676 506.889 379.799 514.741 383.322 522.151C387.443 530.819 391.605 539.468 395.638 548.177L397.628 552.468C398.623 554.614 399.615 556.76 400.593 558.914L402.281 562.662C403.978 566.463 405.498 570.485 403.081 574.406C400.832 578.053 396.847 580.875 393.691 583.694C391.058 586.046 388.425 588.398 385.791 590.75C391.236 596.206 394.891 603.077 397.039 610.446C400.092 609.173 403.818 608.929 406.974 608.378C411.392 607.607 411.933 614.301 407.764 614.22C404.684 614.159 401.071 614.474 397.912 613.825C398.461 616.246 398.86 618.704 399.113 621.169C400.441 634.086 397.54 647.079 394.515 659.578L394.266 660.604C390.98 674.131 387.865 687.695 385.078 701.335C382.285 715.004 379.773 728.731 377.543 742.503C375.273 756.521 373.666 770.617 371.94 784.709C371.679 786.842 370.338 788.67 367.983 788.67C366.021 788.67 363.779 786.838 364.025 784.709C365.806 769.363 368.333 754.097 370.843 738.855C375.166 712.608 380.607 686.588 386.866 660.74L387.96 656.238C390.776 644.563 393.331 632.534 391.918 620.492C390.768 610.686 386.671 600.231 378.575 594.14L378.328 593.957C376.437 592.569 375.709 589.914 377.572 588.086C378.757 586.923 379.944 585.761 381.132 584.6L388.259 577.635L389.696 576.229C390.894 575.058 392.098 573.894 393.338 572.767C394.088 572.084 396.123 570.783 396.271 569.661C396.368 568.929 395.502 567.643 395.15 566.968L393.542 563.718C392.628 561.865 391.743 559.999 390.851 558.135C389.003 554.274 387.127 550.425 385.319 546.545L374.456 523.248C371.391 516.676 368.661 509.737 364.654 503.661L363.864 502.476C363.205 501.479 362.622 500.519 362.205 499.299C361.805 498.126 361.302 496.837 360.561 495.836C358.826 493.486 355.509 492.153 352.733 491.66C352.332 491.589 352.478 491.034 352.822 491.001ZM269.269 484.882C269.511 484.882 269.547 485.227 269.325 485.294C265.976 486.302 262.777 487.928 260.166 490.275C258.918 491.398 257.66 492.672 256.889 494.184C256.594 494.763 256.431 495.374 256.311 496.008L256.273 496.22C256.074 497.364 255.789 498.002 255.208 498.918L255.108 499.074C251.791 504.201 249.466 509.896 247.34 515.598L242.711 528.031L238.084 540.466C236.594 544.472 235.102 548.479 233.611 552.486C232.788 554.698 231.941 556.901 231.094 559.104C230.728 560.058 230.334 561.005 229.999 561.971C229.953 562.103 229.806 562.899 229.697 563.092L229.734 563.157C230.667 564.728 233.156 566.041 234.566 567.182L239.423 571.112C242.887 573.915 246.439 576.639 249.798 579.567C251.908 581.405 250.595 584.697 248.242 585.465C244.299 586.75 240.435 588.289 236.551 589.744C234.982 590.331 233.348 590.843 231.797 591.49L230.853 591.899C230.485 592.065 230.662 592.063 230.677 592.744C230.691 593.458 230.894 594.203 231.01 594.905C232.318 602.822 233.705 610.726 235.169 618.616C240.347 646.517 246.533 674.214 253.588 701.698C257.152 715.578 260.974 729.389 264.615 743.249C268.248 757.071 273.028 770.695 277.592 784.232C278.88 788.049 272.832 789.693 271.576 785.892C266.315 769.97 261.503 753.91 256.534 737.898C247.705 709.448 240.747 680.379 234.594 651.241C231.544 636.799 228.755 622.302 226.228 607.76C225.75 605.006 225.281 602.252 224.821 599.495L224.152 595.441C223.693 592.551 223.431 589.541 225.676 587.254C227.867 585.021 231.629 584.23 234.513 583.183L234.723 583.106C236.558 582.421 238.406 581.761 240.247 581.08C237.535 578.943 234.856 576.759 232.151 574.623C229.968 572.9 227.751 571.212 225.6 569.45C223.826 567.996 222.38 566.129 222.195 563.765C222.006 561.349 223.041 559.107 223.875 556.891L223.955 556.677C224.775 554.465 225.596 552.253 226.439 550.049L231.651 536.406C234.964 527.736 238.137 518.996 241.621 510.394C242.999 506.99 244.501 503.639 246.276 500.421C247.132 498.869 248.05 497.351 249.048 495.886C250.165 494.244 251.18 493.443 252.911 492.537C255.68 491.088 257.854 488.659 260.634 487.165C263.363 485.699 266.171 484.916 269.269 484.882ZM278.258 469.415C278.364 469.233 278.645 469.314 278.648 469.521C278.721 473.83 277.698 478.233 277.069 482.493C276.436 486.769 276.234 491.282 275.319 495.512C275.3 495.709 275.262 495.903 275.208 496.094L275.165 496.239C274.779 497.424 273.775 498.428 272.544 498.742C272.931 500.89 273.296 503.041 273.603 505.204C274.13 508.921 274.611 512.644 275.084 516.369L275.65 520.838C276.185 525.05 276.705 529.264 277.219 533.479C278.526 534.026 279.861 534.477 281.227 534.869C284.374 535.77 287.597 536.136 290.845 536.455C297.458 537.104 304.122 537.405 310.759 537.774L312.18 537.854C319.642 538.282 327.144 538.358 334.586 537.592C338.277 537.212 341.938 536.574 345.537 535.671C347.366 535.211 349.143 534.526 350.968 534.077C351.573 533.928 352.114 533.585 352.721 533.218C352.99 532.877 353.368 532.619 353.86 532.52L353.994 532.497L354.126 532.477L354.171 532.457L354.168 532.471C354.541 532.421 354.896 532.421 355.23 532.467C355.364 529.181 355.508 525.895 355.689 522.61C356.174 513.787 357.515 504.583 355.725 495.837C355.665 495.543 356.065 495.439 356.169 495.714C359.681 504.973 359.286 515.098 359.463 524.843C359.636 534.372 359.531 543.909 359.484 553.441C360.166 553.732 360.775 554.125 361.257 554.678C362.219 555.782 362.496 557.702 361.257 558.768C360.707 559.24 360.099 559.568 359.454 559.796C359.42 568.077 359.361 576.358 359.278 584.64C360.852 585.856 360.999 588.744 359.219 589.945C358.923 616.763 358.436 643.581 358.032 670.395L357.186 726.651C357.073 734.147 356.887 741.642 356.82 749.136L356.873 749.157L357.06 749.244C357.375 749.392 357.844 749.632 357.942 749.877C357.967 749.941 357.974 749.985 357.971 750.018C358.487 750.09 358.999 750.335 359.441 750.755C360.534 751.794 360.312 753.36 359.441 754.418L359.209 754.701C358.666 755.36 357.635 755.614 356.794 755.48C356.802 760.158 356.832 764.836 356.817 769.514C356.813 770.942 356.791 772.371 356.766 773.8L356.708 777.226C356.668 779.18 356.495 781.665 354.495 782.543C352.238 783.534 350.214 782.722 349.3 780.428C349.052 779.807 349.106 779.228 349.196 778.613C349.168 777.69 349.023 776.62 349.041 775.764L349.116 772.192C349.127 771.642 349.15 771.091 349.165 770.541L349.1 770.547C341.08 770.937 333.004 770.747 324.971 770.742L321.398 770.747C318.418 770.75 315.43 770.734 312.454 770.62L311.338 770.572C309.109 770.468 306.766 770.434 304.455 770.235C304.75 772.608 305.025 774.983 305.27 777.361C305.502 779.615 303.177 781.531 301.103 781.531C298.64 781.531 297.232 779.593 296.937 777.361C295.545 766.83 294.975 756.201 293.646 745.663C292.455 736.225 291.422 726.765 290.372 717.309L290.021 714.157C286.18 679.745 282.45 645.319 278.883 610.877L277.221 594.777C275.544 578.549 273.856 562.32 272.433 546.068C271.619 536.776 270.869 527.483 270.164 518.182C269.646 511.35 269.321 504.555 269.109 497.735C268.274 496.876 267.856 495.62 268.226 494.324C268.442 493.568 268.693 492.815 268.959 492.064C268.942 491.326 268.925 490.588 268.91 489.849C268.897 489.15 269.606 488.79 270.174 488.906C271.206 486.406 272.342 483.927 273.29 481.451C274.825 477.442 276.09 473.123 278.258 469.415ZM192.543 512.735C208.587 502.672 227.685 495.431 246.813 496.21C247.249 496.228 247.371 496.892 246.919 496.992C236.716 499.272 226.401 502.049 216.742 506.091C207.054 510.145 197.843 515.603 189.638 522.163C174.501 534.266 162.736 550.008 154.989 567.753C150.451 578.148 147.27 589.122 144.492 600.1C141.553 611.719 139.131 623.462 137.117 635.277C133.139 658.613 130.823 682.207 129.59 705.841C128.337 729.883 128.853 753.942 127.959 777.987C127.805 782.153 121.855 782.071 121.552 777.987C119.526 750.649 120.649 722.875 122.523 695.556C124.207 670.998 127.15 646.491 131.888 622.328L132.3 620.233C136.73 597.878 142.072 574.981 152.78 554.735C161.922 537.45 176.035 523.09 192.543 512.735ZM415.342 619.58C415.426 619.34 415.742 619.343 415.826 619.58C417.655 624.704 417.721 630.486 418.207 635.887L418.245 636.302C418.712 641.229 419.063 646.162 419.389 651.098L419.51 652.95C420.821 673.09 422.458 693.207 424.926 713.241C427.385 733.199 430.71 753.018 434.305 772.798C434.706 775.001 433.731 777.244 431.423 777.878C429.389 778.437 426.778 777.184 426.348 774.994C424.116 763.641 422.311 752.272 420.7 740.821C417.866 720.655 415.75 700.397 414.39 680.079C413.708 669.874 413.287 659.673 413.12 649.446C413.043 644.701 413.166 639.945 413.419 635.205L413.479 634.111C413.758 629.266 413.729 624.2 415.342 619.58ZM241.973 747.858C242.188 747.742 242.453 747.981 242.317 748.203C239.211 753.256 235.008 757.613 230.946 761.907C226.699 766.396 222.558 771.02 218.225 775.421C215.095 778.6 210.059 773.472 213.363 770.555C218.008 766.454 222.863 762.558 227.591 758.549L229.658 756.795C233.535 753.517 237.526 750.269 241.973 747.858ZM389.53 745.328C389.298 744.885 389.828 744.527 390.188 744.82C392.694 746.859 394.94 749.292 397.36 751.444C399.756 753.576 402.242 755.565 404.796 757.504C407.36 759.451 409.98 761.321 412.671 763.09C414.903 764.557 417.203 765.732 419.541 766.951C420.623 767.09 421.626 767.622 422.428 768.63C423.696 770.224 423.831 773.23 422.072 774.614L421.756 774.862C419.703 776.477 417.265 776.674 415.244 774.862C412.987 772.84 410.854 770.614 408.686 768.476L408.035 767.838C405.706 765.572 403.434 763.233 401.291 760.789L399.352 758.581C395.754 754.475 392.009 750.049 389.53 745.328ZM377.987 508.598C377.57 508.321 377.827 507.577 378.342 507.755L379.286 508.081C383.229 509.453 387.287 510.974 390.867 513.085C394.715 515.354 398.267 518.057 401.661 520.956C408.686 526.958 414.663 534.338 419.742 542.031C429.933 557.467 436.236 575.146 441.324 592.834C446.75 611.694 450.928 630.961 454.339 650.281C457.804 669.916 460.478 689.728 462.235 709.591C463.101 719.375 463.682 729.165 463.974 738.983C464.125 744.034 464.12 749.081 464.078 754.134C464.067 755.433 464.076 756.732 464.091 758.03L464.14 761.927C464.166 764.391 464.461 766.98 463.876 769.387C462.934 773.261 456.534 772.538 456.744 768.578C456.551 767.261 456.543 765.899 456.593 764.535C456.563 764.359 456.53 764.18 456.493 763.997C456.388 763.474 456.478 762.989 456.683 762.572C456.716 761.918 456.746 761.267 456.757 760.628C456.799 758.027 456.796 755.436 456.724 752.835C456.573 747.351 456.355 741.868 456.135 736.387C455.695 725.434 455.083 714.476 454.196 703.551C451.109 665.52 444.591 627.272 433.644 590.684C428.559 573.693 421.55 557.014 411.497 542.332C407.035 535.814 402 529.793 396.419 524.206C390.802 518.583 384.613 512.989 377.987 508.598ZM302.236 753.762L302.994 759.254C303.374 762 303.749 764.747 304.106 767.497C306.527 767.165 309.004 767.026 311.338 766.819C315.423 766.457 319.536 766.281 323.633 766.112C332.105 765.762 340.619 765.156 349.1 765.198C349.187 765.199 349.269 765.204 349.352 765.211L349.772 754.375L343.814 754.366C338.765 754.358 333.718 754.315 328.669 754.271C324.123 754.232 319.574 754.226 315.028 754.131L313.08 754.085C309.633 753.992 305.826 754.184 302.236 753.762ZM350.272 738.033C350.029 738.062 349.782 738.086 349.519 738.097C348.339 738.147 347.149 738.112 345.968 738.122C343.453 738.144 340.939 738.161 338.424 738.16C333.394 738.16 328.365 738.19 323.336 738.251C318.159 738.314 312.986 738.404 307.808 738.414C305.3 738.418 302.799 738.352 300.291 738.282C300.697 741.848 301.121 745.412 301.589 748.967C305.483 748.441 309.671 748.706 313.477 748.67L313.971 748.663C319.166 748.575 324.365 748.64 329.561 748.646C334.906 748.653 340.25 748.67 345.595 748.714L349.987 748.75L349.995 748.529C350.124 745.034 350.207 741.534 350.272 738.033ZM298.36 720.971C298.846 725.181 299.303 729.398 299.769 733.613C300.079 733.566 300.392 733.524 300.712 733.491C303.224 733.228 305.731 733.003 308.252 732.846C313.277 732.535 318.302 732.37 323.336 732.235C328.512 732.096 333.689 731.99 338.867 731.916C341.383 731.881 343.896 731.885 346.412 731.902C347.592 731.91 348.784 731.873 349.962 731.952C350.102 731.962 350.237 731.976 350.37 731.992L350.459 725.662C350.474 724.607 350.49 723.553 350.507 722.498C346.619 722.738 342.666 722.647 338.781 722.648L337.885 722.65C333.004 722.672 328.12 722.605 323.239 722.504C318.204 722.399 313.179 722.234 308.152 721.911C306.116 721.781 304.094 721.607 302.069 721.384L301.056 721.268C300.174 721.164 299.267 721.08 298.36 720.971ZM350.908 703.109C341.544 703.853 332.23 704.164 322.842 704.256L321.433 704.268C313.136 704.331 304.771 704.674 296.455 704.454C296.952 708.768 297.448 713.083 297.948 717.397C299.139 717.341 300.335 717.341 301.499 717.299C303.867 717.213 306.227 717.192 308.596 717.186C313.477 717.175 318.358 717.218 323.239 717.208C328.27 717.197 333.299 717.112 338.329 717.017C342.407 716.941 346.528 716.634 350.617 716.645L350.908 703.109ZM351.304 684.702C350.219 685.063 348.938 685.086 347.534 685.15L343.909 685.331C342.229 685.414 340.548 685.491 338.867 685.552C333.265 685.758 327.664 685.949 322.061 686.128C316.32 686.31 310.551 686.416 304.809 686.235C301.996 686.146 299.207 685.999 296.403 685.764C295.709 685.706 295.003 685.668 294.295 685.618C294.947 691.334 295.603 697.05 296.26 702.765C304.537 701.749 312.877 701.116 321.143 700.064L328.618 699.109C336.089 698.155 343.554 697.219 351.052 696.429L351.304 684.702ZM351.703 666.092C350.111 666.485 348.296 666.466 346.768 666.562L346.484 666.582C343.588 666.802 340.683 666.912 337.78 666.983C332.089 667.124 326.395 667.194 320.702 667.229L317.279 667.25C312.716 667.277 308.155 667.288 303.591 667.182C300.663 667.114 297.741 666.97 294.816 666.824C293.939 666.779 293.043 666.75 292.144 666.705C292.756 672.117 293.374 677.528 293.99 682.939C294.951 682.786 295.917 682.67 296.838 682.514C299.196 682.116 301.549 681.797 303.924 681.512C309.068 680.896 314.239 680.452 319.407 680.077C324.713 679.692 330.023 679.367 335.329 678.994L339.088 678.729C340.34 678.642 341.593 678.558 342.847 678.481C344.987 678.35 347.475 678.498 349.598 678.032C350.173 677.792 350.811 677.737 351.451 677.874L351.703 666.092ZM352.185 644.308C351.634 645.008 350.811 645.375 349.83 645.502C344.721 646.166 339.48 646.272 334.327 646.585L333.419 646.642C328.098 646.993 322.775 647.269 317.45 647.552C311.981 647.842 306.512 648.079 301.038 648.27C298.714 648.351 296.378 648.36 294.051 648.331L293.054 648.316C292.098 648.299 291.097 648.302 290.094 648.269C290.649 653.33 291.21 658.39 291.778 663.449C292.801 663.337 293.823 663.253 294.816 663.147C297.74 662.838 300.66 662.532 303.591 662.301C309.144 661.863 314.701 661.6 320.264 661.324C325.956 661.042 331.651 660.855 337.344 660.589C340.104 660.459 342.864 660.299 345.616 660.045C347.544 659.867 349.835 659.21 351.848 659.452C351.958 654.404 352.072 649.356 352.185 644.308ZM352.634 624.794C352.547 624.929 352.445 625.06 352.321 625.181C350.072 627.406 347.299 627.234 344.318 627.468L344.135 627.482C341.214 627.728 338.291 627.962 335.366 628.173C329.519 628.596 323.661 628.891 317.806 629.154C311.814 629.424 305.783 629.61 299.785 629.487C295.944 629.408 291.921 629.422 288.003 629.048C288.605 634.621 289.21 640.194 289.82 645.766C290.921 645.559 292.03 645.399 293.08 645.234C295.727 644.817 298.376 644.399 301.038 644.092C306.357 643.479 311.677 642.906 317.007 642.389C321.564 641.946 326.12 641.497 330.681 641.093L333.419 640.856C338.86 640.398 344.371 639.643 349.83 639.531C350.73 639.513 351.748 640.003 352.263 640.776C352.384 635.448 352.509 630.121 352.634 624.794ZM353.012 608.997C351.622 609.166 350.125 609.07 348.842 609.112C345.6 609.218 342.357 609.316 339.114 609.412L319.656 609.987C313.032 610.182 306.384 610.329 299.756 610.235C296.841 610.194 293.913 610.189 290.999 610.03L290.028 609.971C288.828 609.891 287.356 609.88 285.919 609.734L287.616 625.464C291.515 624.901 295.533 624.69 299.398 624.359L300.224 624.286C305.926 623.767 311.655 623.423 317.366 623.036C323.225 622.639 329.076 622.157 334.927 621.664C337.851 621.418 340.775 621.172 343.698 620.903L344.059 620.868C346.819 620.579 349.415 619.965 351.859 621.594C352.217 621.832 352.497 622.15 352.689 622.507C352.796 618.004 352.9 613.5 353.012 608.997ZM353.465 590.639C341.615 591.116 329.763 591.478 317.904 591.637C311.229 591.727 304.563 591.664 297.888 591.524C294.994 591.463 292.076 591.325 289.184 591.103L288.101 591.016C286.726 590.9 285.282 590.816 283.843 590.677C284.438 596.086 285.027 601.495 285.613 606.905C287.027 606.642 288.506 606.521 289.746 606.362L290.028 606.325C293.108 605.9 296.218 605.653 299.314 605.381C305.342 604.849 311.401 604.507 317.445 604.216C323.635 603.917 329.828 603.665 336.018 603.389L342.209 603.112C343.241 603.066 344.273 603.021 345.305 602.978C346.779 602.915 348.253 602.856 349.727 602.795C350.454 602.765 351.21 602.666 351.938 602.704L352.146 602.676C352.241 602.664 352.325 602.654 352.403 602.645C352.601 602.495 352.814 602.369 353.04 602.275L353.177 602.221L353.465 590.639ZM281.9 573.241C282.451 578.11 282.995 582.98 283.532 587.851C285.222 587.658 286.932 587.551 288.546 587.405C291.8 587.114 295.069 586.858 298.333 586.708L304.856 586.404C309.205 586.203 313.553 586.009 317.904 585.85C329.814 585.415 341.723 584.916 353.625 584.308C353.709 581.005 353.796 577.701 353.884 574.398C353.313 575.01 352.487 575.413 351.403 575.411C338.907 575.377 326.402 575.449 313.908 575.244C307.654 575.141 301.407 574.989 295.16 574.668C292.104 574.511 289.03 574.191 285.997 573.77C284.703 573.591 283.288 573.463 281.9 573.241ZM279.9 555.891C280.488 560.879 281.064 565.868 281.631 570.858C283.183 570.581 284.786 570.433 286.234 570.236C289.344 569.813 292.474 569.475 295.607 569.298C301.703 568.953 307.803 568.779 313.908 568.65C326.401 568.384 338.907 568.386 351.403 568.287C352.577 568.278 353.448 568.743 354.02 569.437C354.107 566.322 354.199 563.207 354.293 560.092C353.086 559.965 351.889 559.784 350.782 559.707C347.379 559.469 343.974 559.252 340.568 559.056C333.461 558.648 326.346 558.3 319.234 557.99C312.12 557.68 305.003 557.378 297.887 557.114L294.774 557C289.825 556.816 284.792 556.583 279.9 555.891ZM277.663 537.107C278.274 542.159 278.876 547.211 279.477 552.264L279.66 553.828C285.612 552.67 291.884 552.33 297.887 552.075C305.004 551.772 312.11 551.616 319.234 551.638C326.351 551.659 333.457 551.828 340.568 552.122C344.121 552.269 347.674 552.439 351.225 552.632C352.202 552.685 353.347 552.656 354.525 552.673C354.551 551.879 354.572 551.085 354.6 550.292C354.708 547.076 354.814 543.86 354.924 540.644C352.522 541.879 349.399 542.377 346.985 542.903L346.71 542.964C342.724 543.86 338.655 544.44 334.586 544.795C326.597 545.493 318.524 545.232 310.543 544.557L309.145 544.437C302.135 543.829 294.869 543.058 288.074 541.322C284.838 540.495 281.492 539.338 278.591 537.661C278.29 537.487 277.978 537.302 277.663 537.107ZM345.15 477.079C345.22 476.806 345.628 476.744 345.763 476.999C346.707 478.793 347.058 480.947 347.713 482.87C348.418 484.937 349.076 487.02 349.854 489.062C351.48 493.328 353.397 497.428 355.684 501.381C357.948 505.294 351.608 508.088 349.942 503.803C348.222 499.382 346.808 494.81 345.953 490.138C345.535 487.859 345.163 485.548 345.042 483.232C344.938 481.242 344.659 479.02 345.15 477.079Z" fill="black"/>
<path fill-rule="evenodd" clip-rule="evenodd" d="M382.234 349.541C366.552 308.163 338.285 277.868 290.63 296.896C289.263 295.963 287.479 295.713 285.77 296.806C259.81 313.154 241.117 339.364 233.015 368.919C228.085 369.86 223.294 371.499 219.015 374.188C209.715 380.033 203.458 389.332 197.593 398.39C195.83 401.113 197.463 405.621 200.777 406.239C202.217 406.508 203.644 406.668 205.063 406.71C204.717 407.968 204.263 409.183 203.684 410.297C201.587 414.332 205.548 418.615 209.259 417.512C209.671 417.731 210.103 417.91 210.55 418.045C210.601 420.331 211.771 423.39 214.089 423.852C217.837 424.658 222.817 421.781 221.933 417.577C223.065 417.777 224.193 417.802 225.293 417.663C225.416 419.853 225.378 422.137 225.679 424.156C226.664 433.673 236.145 440.066 245.186 437.171C245.741 440.136 246.392 444.303 249.304 445.911C252.708 455.49 258.587 466.422 268.216 470.787C267.359 472.989 267.824 475.669 270.406 477.143C288.031 487.221 309.185 490.631 329.111 486.884C337.075 486.409 344.834 484.604 352.281 480.759C357.712 477.955 362.705 474.394 367.579 470.723C372.455 467.051 377.669 463.476 381.561 458.708C385.788 453.53 387.756 447.437 389.033 440.953C394.885 411.519 392.864 382.619 382.234 354.58C369.075 319.873 395.388 384.25 382.234 349.541Z" fill="#694D3D"/>
<path fill-rule="evenodd" clip-rule="evenodd" d="M218.969 372.496C233.607 363.836 252.274 366.078 261.068 379.492C262.586 381.807 263.634 384.355 264.375 387.304L264.494 387.794L264.614 388.31C264.997 390.015 265.248 391.619 265.589 394.347L265.967 397.442L266.075 398.286C266.441 401.087 266.762 402.857 267.263 404.661L267.362 405.011L267.941 407.009L265.757 407.818C261.574 409.333 260.698 409.469 258.284 408.203C256.399 407.215 255.415 405.884 254.105 403.188L253.916 402.793L253.498 401.914L253.271 401.45C252.418 399.742 251.735 397.92 250.769 397.258C249.458 396.359 245.326 396.002 242.452 396.356L242.302 396.375L242.178 396.401L241.965 396.449C237.132 397.595 232.727 401.508 229.821 405.643C227.482 408.972 226.137 413.166 225.973 417.525L225.963 417.815L225.906 420.04L221.221 419.94L221.267 419.074L221.197 419.228C219.721 422.349 216.012 424.427 212.91 422.361L212.799 422.286L212.687 422.205C210.067 420.271 209.752 416.357 211.902 413.979L212.001 413.872L212.098 413.774L212.078 413.765L212.056 413.757L212.042 413.756C211.31 413.891 210.666 414.267 209.796 415.069L209.572 415.279L209.123 415.767L208.657 416.265L208.458 416.471C208.33 416.6 208.213 416.714 208.103 416.814C207.954 416.95 207.816 417.064 207.667 417.168C207.528 417.264 207.385 417.348 207.212 417.424C206.785 417.61 206.329 417.698 205.745 417.554C204.944 417.357 204.493 416.871 204.22 416.299C204.114 416.077 204.053 415.872 204.01 415.657C203.965 415.431 203.943 415.201 203.931 414.936C203.924 414.762 203.921 414.572 203.922 414.365L203.928 414.041L203.939 413.689L203.951 413.408L204.004 412.365C204.193 408.942 205.09 405.58 206.626 402.406L206.782 402.09L206.84 401.975L206.679 402.191C205.632 403.575 204.621 404.535 203.358 405.168L203.185 405.253L203.015 405.33C201.263 406.102 199.499 405.802 198.434 404.372C197.697 403.382 197.479 402.079 197.63 400.709C197.923 398.05 198.972 395.616 201.024 392.064L201.312 391.57L202.439 389.653C206.781 382.324 212.362 376.404 218.969 372.496Z" fill="#E8E1E1"/>
<path fill-rule="evenodd" clip-rule="evenodd" d="M306.422 288.833C314.447 288.265 322.619 289.622 330.262 292.049C342.451 295.919 353.645 302.748 362.842 311.638C372.32 320.801 379.331 332.097 383.593 344.574C388.733 359.621 389.503 375.687 390.95 391.395C391.68 399.33 392.885 407.145 394.137 415.004L394.335 416.246C395.558 423.903 396.246 431.647 394.556 439.292C391.747 451.998 383.327 462.784 373.331 470.754C352.797 487.126 320.831 497.107 296.923 482.042C293.225 479.711 296.73 473.75 300.34 476.179C302.882 477.889 305.574 479.388 308.461 480.423C320.523 484.746 333.771 483.206 345.693 479.185C357.441 475.222 368.714 468.525 377.383 459.589C386.489 450.204 391.535 438.61 390.806 425.418C390.371 417.57 388.588 409.866 387.599 402.081C386.722 395.186 386.196 388.253 385.591 381.33L385.369 378.84C384.084 364.735 382.24 350.244 375.841 337.44C370.459 326.669 362.577 317.087 353.101 309.686C343.18 301.938 331.33 296.519 318.897 294.498C304.275 292.122 290.279 296.443 278.083 304.489C267.265 311.624 257.966 321.158 250.835 331.977C247.377 337.223 244.431 342.825 241.887 348.57C239.49 353.983 237.837 359.656 235.909 365.235C237.495 365.188 239.108 365.249 240.746 365.431C249.145 366.364 256.971 370.73 261.953 377.614C268.041 386.026 266.396 396.352 268.774 405.919C268.958 406.662 268.645 407.389 268.011 407.8C264.405 410.137 259.58 410.215 256.09 407.583C253.061 405.299 251.639 401.169 252.865 397.561C253.025 397.091 253.708 397.174 253.727 397.678C253.958 403.819 259.638 408.547 265.206 405.625C262.817 397.376 264.074 388.162 259.19 380.711C250.544 367.523 232.652 366.978 220.085 374.412C213.471 378.324 208.236 384.207 204.338 390.786L203.215 392.696C201.721 395.248 200.139 398.135 199.829 400.946C199.65 402.568 200.247 404.092 202.102 403.275C203.603 402.614 204.765 401.072 205.656 399.746C207.177 397.486 210.671 399.439 209.415 401.846L209.372 401.925C207.544 405.172 206.419 408.751 206.213 412.48L206.16 413.512C206.126 414.265 206.101 415.335 206.26 415.374C206.45 415.421 207.772 413.889 207.993 413.677C209.053 412.655 210.146 411.82 211.623 411.548C213.564 411.191 215.522 413.6 213.837 415.179L213.767 415.243C212.263 416.554 212.33 419.169 213.991 420.395C216.336 422.126 219.222 419.301 219.563 416.975L219.574 416.89C219.875 414.377 223.355 414.288 223.544 416.89C223.954 422.536 217.252 427.268 212.152 424.42C210.136 423.294 208.854 421.233 208.452 419.023C207.808 419.364 207.114 419.601 206.38 419.666C203.99 419.879 202.291 418.193 201.904 415.931C201.454 413.296 201.721 410.474 202.413 407.737C201.115 408.051 199.75 407.931 198.378 407.137C194.225 404.734 195.418 399.389 196.985 395.78C203.678 380.377 217.544 366.401 234.723 365.291C234.817 362.574 235.184 360.005 235.785 357.283C241.661 330.666 260.696 306.019 285.476 294.5C292.098 291.421 299.121 289.35 306.422 288.833ZM241.436 395.159L241.671 395.105C244.349 394.527 251.394 393.847 250.545 398.366C250.505 398.578 250.197 398.552 250.142 398.366C249.31 395.525 243.66 397.797 242.011 398.481C239.736 399.423 237.493 400.813 235.636 402.429C231.57 405.968 228.845 410.956 228.431 416.372C228.02 421.745 229.574 427.549 233.439 431.436C235.333 433.341 237.751 434.634 240.467 434.729C242.908 434.814 245.604 432.909 247.856 434.025C248.3 434.245 248.652 434.848 248.611 435.346C248.536 436.287 248.116 437.019 247.491 437.588C251.261 444.478 254.346 451.771 259.155 458.037C261.569 461.181 264.303 464.092 267.4 466.57C268.872 467.748 270.472 468.782 272.122 469.691C274.056 470.757 275.729 471.424 277.109 473.23C278.286 474.77 277.108 477.748 275.169 478.014C270.6 478.638 266.161 474.934 262.807 472.159C259.456 469.386 256.56 465.966 254.167 462.337C249.572 455.369 246.428 447.149 245.171 438.832C243.711 439.296 242.068 439.438 240.832 439.441C237.544 439.448 234.404 438.262 231.819 436.257C222.358 428.917 221.306 413.849 227.983 404.346C231.178 399.799 236.033 396.439 241.436 395.159ZM241.495 412.636C243.689 412.443 245.881 412.79 247.943 413.54L248.793 413.849C250.589 414.508 252.5 415.282 253.797 416.632C255.778 418.696 253.806 422.271 250.983 421.48C247.863 420.606 245.326 417.97 242.207 416.864C239.418 415.876 236.26 416.016 233.785 417.718C233.458 417.943 233.028 417.499 233.242 417.173C235.135 414.282 238.124 412.932 241.495 412.636Z" fill="black"/>
<path fill-rule="evenodd" clip-rule="evenodd" d="M350.043 445.778C350.729 444.586 352.306 443.481 353.75 443.65C360.217 444.409 360.206 452.257 357.709 456.838C355.495 460.901 350.912 463.285 346.326 462.937C341.507 462.571 337.402 459.736 335.595 455.225C334.4 452.24 333.848 446.731 337.027 444.726C337.086 444.689 337.183 444.698 337.23 444.752C338.754 446.527 338.814 449.191 340.148 451.166C341.389 453.004 343.317 454.521 345.575 454.755C347.262 454.93 348.968 454.322 349.628 452.806C349.985 451.986 349.944 451.541 349.81 450.977L349.688 450.487C349.266 448.769 349.076 447.462 350.043 445.778ZM351.772 411.362C355.145 413.414 360.285 418.198 356.656 423.286C352.385 427.771 346.235 422.628 343.205 420.302C340.395 418.5 337.238 423.136 339.845 425.241C361.743 441.467 370.629 411.898 353.478 408.949C351.59 408.624 350.888 410.727 351.772 411.362ZM316.153 397.291C318.223 394.182 322.949 394.64 324.089 398.329C324.707 400.327 323.854 402.123 323.898 404.119C323.935 405.805 323.825 407.683 323.308 409.316C322.131 413.039 318.785 415.669 314.827 415.56C310.882 415.451 307.408 412.952 305.755 409.432C304.097 405.899 304.448 402.243 305.659 398.65C305.717 398.478 305.943 398.394 306.079 398.539C307.51 400.061 308.557 401.668 309.641 403.372L310.752 405.119C311.601 406.434 312.835 408.114 314.42 408.009L314.657 407.985C315.098 407.947 315.03 408.035 315.37 407.434C315.527 407.156 315.499 406.639 315.575 406.311L315.601 406.2L315.587 406.14C315.553 405.981 315.52 405.682 315.493 405.162L315.487 405.048C315.372 402.617 314.686 399.493 316.153 397.291ZM368.634 399.36C368.263 395.384 373.848 394.501 375.705 397.443C376.673 398.978 376.955 400.905 377.169 402.731L377.27 403.598C377.489 405.473 377.576 407.424 376.763 409.173C375.482 411.928 372.696 413.385 369.691 413.154C366.821 412.933 364.202 411.268 362.822 408.74C361.592 406.484 360.368 402.08 361.863 399.727C361.953 399.584 362.133 399.566 362.257 399.676C363.669 400.931 363.9 403.22 364.739 404.855C365.605 406.541 366.919 408.184 368.91 408.44C370.815 408.685 371.542 407.644 371.056 405.827C370.43 403.481 368.87 401.885 368.634 399.36ZM317.661 373.652L318.575 373.302C321.704 372.119 326.001 370.751 328.545 373.298C330.115 374.868 330.414 377.182 329.293 379.098C327.936 381.42 325.501 381.477 323.15 381.819C320.475 382.208 317.756 382.948 315.266 384.002C312.461 385.19 309.858 386.67 307.308 388.324C304.884 389.895 302.469 392.464 299.568 392.948C299.45 392.967 299.315 392.916 299.284 392.786C298.626 389.948 300.457 387.154 302.09 384.939C304.067 382.258 306.463 380.057 309.14 378.084C311.724 376.179 314.677 374.802 317.661 373.652ZM374.509 383.745L374.788 383.696C376.686 383.38 378.406 383.453 379.836 384.957C380.927 386.104 381.348 387.592 380.828 389.109C380.348 390.509 379.274 391.931 377.715 392.224C372.454 393.215 366.626 393.051 361.338 392.301C358.919 391.958 356.478 391.538 354.121 390.875L353.037 390.56C351.07 389.998 348.818 389.41 347.389 387.962C346.875 387.442 347.171 386.697 347.786 386.456C350.279 385.479 353.697 385.999 356.356 385.923C359.448 385.834 362.546 385.602 365.624 385.282C368.632 384.969 371.543 384.289 374.509 383.745Z" fill="black"/>
<path fill-rule="evenodd" clip-rule="evenodd" d="M403.641 377.325C403.273 377.263 402.905 377.206 402.537 377.152C402.25 376.989 401.913 376.863 401.52 376.787C400.625 376.56 399.735 376.406 398.847 376.324C386.103 373.453 356.619 377.529 355.402 388.414C351.343 389.77 347.832 388.556 343.128 388.676C339.547 373.698 277.645 375.812 274.668 384.842C274.657 384.839 274.645 384.837 274.634 384.833C271.773 383.947 267.556 384.161 264.282 384.02C257.291 383.874 250.292 384.497 243.452 385.973C230.643 388.01 213.163 390.395 222.071 406.403C222.072 406.406 222.074 406.409 222.076 406.412L222.077 406.41C223.613 407.985 226.218 406.717 226.315 404.585C223.32 397.001 230.085 396.091 235.289 393.911C248.24 389.255 261.425 388.609 274.819 390.05C275.827 391.237 277.356 392.272 278.972 392.814C287.927 394.302 283.208 400.951 288.869 401.918C287.829 425.094 315.943 437.744 332.233 422.509C338.737 416.145 340.288 406.717 341.796 398.219C342.593 398.04 343.1 397.604 343.396 397.026C345.314 395.11 346.518 393.34 350.31 392.814C354.102 392.288 357.021 393.344 357.416 393.667C357.516 393.868 357.622 394.069 357.747 394.27C357.92 394.57 358.156 394.809 358.424 394.998C354.679 418.076 372.581 432.672 390.653 420.702C398.506 413.309 400.165 401.99 400.493 391.888C401.557 391.245 402.231 389.999 401.863 388.433C401.355 386.273 402.546 384.404 404.443 383.465C406.907 382.246 406.471 377.794 403.641 377.325ZM325.987 388.274C323.743 387.78 322.785 391.241 325.036 391.736C326.629 392.087 327.98 392.891 328.892 394.254L328.988 394.402C330.213 396.352 333.309 394.552 332.076 392.589C330.689 390.381 328.533 388.834 325.987 388.274ZM391.687 386.127C390.896 385.57 389.699 385.984 389.24 386.772C388.735 387.639 389.066 388.605 389.807 389.172L389.882 389.228C390.562 389.707 391.223 390.566 391.306 391.446L391.314 391.556C391.403 393.86 394.979 393.871 394.89 391.556C394.803 389.292 393.493 387.4 391.687 386.127Z" fill="black"/>
<path d="M374.171 219.684C377.369 224.285 379.624 230.047 378.656 235.243C377.716 240.452 373.553 245.094 368.658 248.914C363.762 252.735 358.129 255.665 353.2 254.811C348.282 253.928 344.064 249.194 339.889 244.898C335.727 240.575 331.58 236.68 330.086 231.753C328.619 226.837 329.815 220.862 332.772 215.749C335.712 210.597 340.412 206.306 345.686 205.169C350.988 204.042 356.863 206.068 361.846 208.822C366.856 211.588 370.974 215.083 374.171 219.684Z" fill="#9FD8E5"/>
<path d="M382.115 135.944C387.098 143.136 390.606 152.146 389.086 160.278C387.609 168.427 381.103 175.699 373.455 181.684C365.807 187.67 357.01 192.265 349.318 190.937C341.645 189.566 335.069 182.166 328.562 175.455C322.072 168.699 315.609 162.614 313.285 154.908C311.005 147.22 312.883 137.869 317.507 129.865C322.105 121.799 329.45 115.079 337.683 113.289C345.96 111.517 355.126 114.675 362.897 118.975C370.712 123.293 377.133 128.753 382.115 135.944Z" fill="#9093D1"/>
<path d="M428.076 227.141C429.675 229.44 430.802 232.321 430.318 234.919C429.848 237.524 427.766 239.845 425.319 241.756C422.871 243.665 420.054 245.131 417.59 244.703C415.131 244.263 413.022 241.895 410.935 239.748C408.853 237.586 406.78 235.638 406.033 233.175C405.3 230.717 405.897 227.729 407.376 225.173C408.846 222.597 411.196 220.452 413.833 219.883C416.484 219.32 419.421 220.332 421.912 221.71C424.418 223.092 426.476 224.84 428.076 227.141Z" fill="#9093D1"/>
<path d="M459.34 120.492C461.918 124.2 463.736 128.844 462.955 133.033C462.197 137.231 458.842 140.973 454.895 144.053C450.95 147.132 446.409 149.494 442.437 148.805C438.472 148.094 435.073 144.277 431.707 140.815C428.352 137.331 425.011 134.191 423.806 130.22C422.623 126.258 423.588 121.441 425.97 117.32C428.341 113.167 432.13 109.709 436.38 108.792C440.653 107.884 445.389 109.517 449.405 111.737C453.444 113.966 456.763 116.783 459.34 120.492Z" fill="#9093D1"/>
<path d="M443.231 172.164C446.429 176.765 448.684 182.527 447.716 187.723C446.776 192.932 442.613 197.575 437.717 201.395C432.822 205.215 427.189 208.146 422.26 207.291C417.342 206.409 413.123 201.674 408.949 197.379C404.786 193.056 400.64 189.161 399.146 184.234C397.679 179.318 398.875 173.342 401.831 168.229C404.771 163.077 409.473 158.787 414.746 157.649C420.048 156.523 425.923 158.548 430.906 161.303C435.916 164.069 440.033 167.564 443.231 172.164Z" fill="#F7859C"/>
<path d="M525.765 220.821C530.748 228.012 534.256 237.023 532.736 245.155C531.259 253.303 524.753 260.575 517.105 266.561C509.457 272.546 500.66 277.141 492.968 275.813C485.295 274.442 478.719 267.043 472.212 260.331C465.723 253.576 459.259 247.49 456.935 239.784C454.656 232.097 456.533 222.745 461.157 214.741C465.755 206.675 473.1 199.955 481.333 198.165C489.61 196.394 498.777 199.552 506.548 203.851C514.363 208.169 520.783 213.629 525.765 220.821Z" fill="#FFDBB4"/>
<path d="M1307.18 231.212C1356.95 263.228 1402.28 310.462 1414.01 365.302C1426.06 420.144 1404.5 482.593 1372.49 539.97C1340.47 597.347 1297.67 649.018 1246.32 660.747C1194.97 672.159 1134.74 642.995 1076.72 617.952C1018.71 592.592 962.604 571.353 928.051 529.192C893.815 487.031 881.135 423.63 889.06 361.498C896.668 299.05 924.881 237.869 971.48 205.218C1018.4 172.567 1083.7 168.446 1143.29 175.103C1203.21 181.76 1257.41 199.195 1307.18 231.212Z" fill="#FFDBB4"/>
<path fill-rule="evenodd" clip-rule="evenodd" d="M1108.95 584.378C1115 555.681 1136.48 533.411 1165.37 522.318C1170.92 519.177 1176.3 505.699 1183.77 503.231C1184.96 502.835 1183.07 505.983 1183.77 506.171C1186.23 506.842 1189 506.912 1191.72 504.491C1196.59 500.161 1198.12 487.513 1201.08 481.796C1216.7 451.648 1255.69 463.444 1260.91 496.772C1264.55 499.147 1269.7 501.238 1273.66 503.152C1277.74 505.122 1281.34 509.894 1285.54 511.601C1289.3 513.123 1295.48 512.044 1299.26 513.371C1316.66 519.475 1331.4 527.177 1342.95 542.782C1345.38 546.073 1348.13 550.12 1350.34 553.445C1361.76 566.594 1369.69 581.332 1377 597.143C1397.44 643.553 1402.99 694.94 1407.98 744.945C1407.87 753.694 1413.67 777.955 1405.09 782.149C1405.6 782.681 1405.42 783.75 1404.46 783.741C1382.7 783.521 1360.98 785.47 1339.55 789.257C1329.21 791.086 1318.92 793.592 1308.39 794.005C1286.53 793.853 1264.74 790.189 1242.91 793.656C1216.66 793.656 1184.76 792.892 1155.56 791.769C1128.27 790.72 1100.83 793.089 1073.88 788.447C1071.75 788.11 1070.7 785.506 1071.15 783.642C1074.31 772.116 1075.87 760.255 1077.64 748.459C1077.29 740.892 1077.92 732.993 1080.72 725.946C1088.03 678.372 1097.4 631.108 1108.95 584.378Z" fill="#FFDBB4"/>
<path fill-rule="evenodd" clip-rule="evenodd" d="M1183.77 506.347C1183.07 506.158 1184.96 503.009 1183.77 503.405C1176.3 505.873 1170.92 519.352 1165.37 522.493C1136.48 533.586 1115 555.855 1108.95 584.553C1097.4 631.282 1088.03 678.546 1080.72 726.121C1077.92 733.169 1077.29 741.067 1077.64 748.633L1077.36 750.496C1075.7 761.677 1074.15 772.897 1071.15 783.816C1070.7 785.682 1071.75 788.284 1073.88 788.621C1100.53 793.211 1127.65 790.947 1154.63 791.908L1160.26 792.119C1188.15 793.145 1218.06 793.831 1242.91 793.831C1264.74 790.363 1286.53 794.028 1308.39 794.179C1318.92 793.766 1329.21 791.26 1339.55 789.432C1360.98 785.644 1382.7 783.696 1404.46 783.915C1405.42 783.924 1405.6 782.856 1405.09 782.323C1413.67 778.129 1407.87 753.869 1407.98 745.12L1407.53 740.615C1402.65 692.036 1396.82 642.336 1377 597.317L1376.4 596.037C1369.26 580.71 1361.45 566.413 1350.34 553.619L1349.66 552.602C1347.58 549.492 1345.14 545.919 1342.95 542.956C1331.4 527.352 1316.66 519.65 1299.26 513.546C1295.48 512.218 1289.3 513.297 1285.54 511.775C1281.61 510.179 1278.21 505.901 1274.45 503.742V519.845L1220 573.495L1189.12 526.13L1185.98 506.732C1185.22 506.685 1184.48 506.541 1183.77 506.347Z" fill="#8FA7DF"/>
<path fill-rule="evenodd" clip-rule="evenodd" d="M1117.76 646.912C1118.33 649.709 1119.14 652.506 1120.21 655.156C1121.25 657.713 1122.8 660.004 1123.88 662.531C1124.02 662.871 1124.26 663.128 1124.54 663.324L1124.45 664.012L1124.37 664.7C1123.83 669.338 1123.23 673.963 1122.71 678.6L1122.46 680.92C1121.43 690.603 1119.81 700.24 1118.56 709.897C1117.33 719.353 1116.08 728.81 1114.74 738.253C1113.35 747.989 1111.94 757.712 1110.3 767.408C1109.6 771.503 1108.88 775.595 1108.13 779.684L1107.54 782.813C1101.54 784.257 1099.9 792.627 1106.01 795.717C1108.78 797.113 1112.35 796.777 1114.64 794.583C1117.01 792.295 1117.11 788.171 1117.66 785.073L1118.19 782.194C1122.17 760.547 1125.62 738.652 1127.23 716.699C1127.65 711.031 1128 705.358 1128.22 699.68C1128.44 694.34 1128.33 689 1128.42 683.66L1128.44 682.203C1128.57 676.508 1128.47 670.822 1128.32 665.127C1128.3 664.433 1128.27 663.739 1128.24 663.041C1128.44 662.806 1128.58 662.526 1128.64 662.256L1128.72 661.898C1128.92 660.977 1128.69 659.899 1127.99 659.24C1127.68 655.361 1127.28 651.486 1127.17 647.61C1127.16 647.292 1126.7 647.301 1126.68 647.61C1126.42 650.909 1125.91 654.217 1125.39 657.521C1122.08 654.859 1119.63 650.468 1118.19 646.794C1118.08 646.528 1117.69 646.624 1117.76 646.912ZM1196.1 492.682C1195.56 495.196 1194.47 497.453 1193.01 499.551C1192.32 500.555 1191.53 501.489 1190.58 502.27C1189.77 502.938 1188.84 503.374 1187.98 503.955C1186.72 503.758 1185.41 504.234 1184.53 505.159L1184.67 503.806C1184.71 503.37 1183.99 503.283 1183.91 503.705C1180.09 522.96 1176.61 542.227 1173.59 561.621L1172.27 570.185L1171.03 578.225C1168.97 591.623 1166.97 605.015 1165.47 618.511C1163.47 636.522 1161.78 654.579 1160.55 672.663C1159.32 690.874 1158.56 709.098 1158.02 727.343C1157.88 731.944 1157.74 736.538 1157.6 741.138L1156.67 735.639C1155.74 730.139 1154.82 724.634 1154.04 719.109C1151.24 699.336 1148.99 679.423 1147.9 659.48C1146.9 641.23 1147.23 622.618 1151.87 604.839C1153.04 600.367 1154.47 595.963 1156.2 591.673C1157.88 587.501 1160.16 583.635 1161.97 579.525C1164.06 574.742 1164.69 570.229 1163.61 565.08C1162.67 560.594 1161.01 556.374 1160.72 551.757C1160.16 543.186 1162.95 534.885 1166.89 527.385C1167.93 525.408 1169.02 523.457 1170.17 521.524C1173.63 515.68 1177.53 510.05 1181.58 504.653C1181.79 504.365 1181.33 504.046 1181.1 504.282C1177.41 507.931 1173.37 511.518 1170.05 515.502C1168.44 517.439 1166.86 519.416 1165.37 521.446C1149 524.182 1134.93 534.379 1125.32 547.847C1114.4 563.129 1108.89 581.524 1104.8 599.637C1100.26 619.769 1096.43 640.083 1092.35 660.313C1088.13 681.248 1083.93 702.182 1079.68 723.11C1077.56 733.5 1075.45 743.891 1073.35 754.286C1072.28 759.549 1071.15 764.799 1069.98 770.044C1069.38 772.732 1068.73 775.417 1068.18 778.114C1067.55 781.155 1068.13 783.1 1070.19 785.335C1070.95 786.165 1072.15 786.151 1073.09 785.711L1073.39 785.572L1073.67 785.434C1074.84 784.861 1075.75 784.268 1076.48 782.991C1077.28 781.592 1077.4 780.038 1077.68 778.48C1078.18 775.612 1078.69 772.745 1079.19 769.874C1079.95 765.58 1080.77 761.298 1081.61 757.018L1085.81 735.624C1086.93 729.921 1088.05 724.217 1089.17 718.516C1093.2 698.127 1097.23 677.743 1101.26 657.359C1105.13 637.787 1108.56 618.08 1112.96 598.621L1113.22 597.525L1113.47 596.43C1117.41 579.654 1122.92 563.427 1132.9 549.213C1140.59 538.281 1151.27 528.519 1163.84 523.579C1162.96 524.854 1162.1 526.154 1161.29 527.481C1156.2 535.807 1152.48 545.691 1153.35 555.606C1153.78 560.45 1155.62 565.211 1155.44 570.095C1155.28 574.432 1152.6 578.242 1150.74 582.016C1146.53 590.57 1143.49 599.66 1141.52 608.985C1137.58 627.711 1137.6 646.978 1138.96 665.987C1140.43 686.65 1143.23 707.309 1146.42 727.771C1148.06 738.265 1150.23 748.674 1151.9 759.152C1152.72 764.318 1153.85 769.473 1154.83 774.614L1155.3 777.069C1155.56 778.433 1155.83 779.791 1156.14 781.135L1156.34 781.94V782.084C1156.35 783.075 1156.62 783.895 1157.05 784.55C1157.65 786.465 1158.39 788.334 1159.38 790.127C1159.88 791.043 1160.62 791.557 1161.42 791.746C1162.22 793.584 1164.04 794.997 1166.21 794.988L1194.78 794.879C1211.38 794.814 1227.98 794.705 1244.57 794.612C1248.76 794.591 1252.94 794.513 1257.13 794.403C1261.05 794.294 1264.81 793.823 1268.69 793.335C1273.07 792.785 1275.44 789.681 1274.79 785.305C1274.65 784.34 1274.49 783.381 1274.34 782.42C1275.21 782.709 1276.25 782.573 1276.95 781.888L1277.61 781.243C1278.53 780.34 1279.34 779.453 1279.92 778.248C1280.52 777.009 1281 775.7 1281.53 774.434C1282.67 771.711 1283.78 768.979 1284.86 766.234C1287.01 760.745 1289.17 755.233 1291.18 749.686C1295.16 738.702 1298.67 727.552 1301.73 716.276C1307.18 696.159 1311.13 675.653 1313.62 654.964L1314.21 650.033L1314.38 648.576C1315.33 640.557 1316.12 632.414 1315.75 624.411C1315.51 619.402 1314.74 614.353 1312.87 609.674C1311.14 605.359 1308.47 601.667 1305.94 597.809L1305.65 597.364L1305.36 596.908C1303.14 593.404 1301.37 589.741 1301.29 585.486C1301.2 581.168 1302.45 576.966 1303.86 572.923L1304.21 571.926L1304.45 571.265C1307.44 562.911 1310.84 554.674 1309.72 545.582C1308.06 532.194 1299.95 521.402 1289.74 513.08C1298.82 514.877 1307.8 518.43 1315.74 522.933C1325.1 528.257 1333.54 535.283 1340.81 543.212C1354.55 558.197 1364.37 576.177 1372.4 594.742C1380.8 614.17 1387.04 634.527 1391.74 655.152C1396.46 675.893 1399.63 696.966 1401.79 718.123C1402.86 728.652 1403.71 739.208 1404.41 749.769C1404.77 755.181 1405.04 760.601 1405.46 766.003C1405.88 771.401 1406.07 776.882 1407.38 782.137C1408 784.585 1412.15 784.834 1412.59 782.137C1413.58 776.114 1413.3 769.885 1413.03 763.786L1413 763.232C1412.73 757.158 1412.38 751.088 1411.96 745.018C1411.11 732.611 1409.96 720.221 1408.47 707.872C1403.24 664.52 1393.59 621.396 1374.67 581.824C1365.76 563.186 1354.33 545.076 1338.42 531.617C1330.85 525.216 1322.31 520.105 1313.11 516.405C1304.88 513.093 1296.52 511.526 1287.77 511.53C1283.39 508.17 1278.68 505.242 1273.98 502.742C1273.7 502.589 1273.4 502.956 1273.63 503.191C1273.76 503.308 1273.87 503.43 1274 503.545C1273.46 503.579 1272.91 503.828 1272.42 504.348C1270.69 506.159 1269.24 508.423 1267.93 510.775C1265.95 513.254 1264.05 515.816 1262.07 518.268C1258.9 522.195 1255.65 526.066 1252.37 529.906C1246.85 536.36 1241.15 542.692 1235.21 548.769L1234.22 549.78C1231.14 552.9 1228.02 556.635 1224.38 559.105L1224.18 559.234C1222.65 560.236 1221.56 560.419 1220.24 558.923C1219.05 557.561 1218.06 555.981 1217.04 554.48L1216.81 554.136C1211.6 546.573 1206.78 538.731 1202.41 530.658C1200.42 526.984 1198.53 523.256 1196.73 519.488L1196.19 518.355C1195.21 516.279 1194.15 514.24 1193.35 512.102C1193.16 511.601 1192.98 511.099 1192.8 510.601C1195.55 508.799 1197.67 504.898 1198.45 501.843C1199.25 498.67 1198.84 495.414 1197.41 492.512C1197.14 491.967 1196.24 492.102 1196.1 492.682ZM1331.7 621.605C1332.08 633.667 1332.31 645.742 1332.88 657.796L1333.07 661.91C1332.19 662.897 1331.67 664.036 1332.08 665.598C1332.25 666.197 1332.72 666.737 1333.31 666.939L1333.5 670.764C1334.34 687.978 1335.33 705.155 1337.13 722.325C1339.39 743.813 1342 765.265 1344.6 786.715C1344.97 789.752 1347.08 792.16 1350.37 791.716C1353.69 791.266 1355.04 788.372 1354.61 785.357C1352.89 773.527 1351.24 761.687 1349.8 749.817L1348.15 736.295C1346.09 719.39 1343.98 702.488 1341.55 685.637C1340.53 678.595 1339.47 671.555 1338.41 664.516L1338.79 664.036C1340.3 662.068 1341.87 660.143 1343.42 658.207C1346.39 654.47 1349.33 650.766 1352.05 646.855C1352.19 646.659 1351.91 646.371 1351.72 646.519C1347.9 649.343 1344.28 652.362 1340.64 655.431L1337.45 658.127C1335.62 645.965 1333.81 633.799 1332.19 621.605C1332.15 621.301 1331.69 621.278 1331.7 621.605ZM1276.72 506.171C1279.02 508.34 1281.37 510.462 1283.69 512.617L1284.54 513.411L1285.38 514.207C1289.46 518.07 1293.36 522.09 1296.61 526.709C1302.58 535.188 1306.13 545.525 1303.65 555.876C1301.59 564.451 1296.87 572.224 1295.6 581.013C1294.96 585.415 1295.27 589.841 1296.93 594C1298.62 598.242 1301.33 601.876 1303.76 605.704C1309.03 614.021 1309.75 623.151 1309.23 632.787C1308.68 642.849 1307.53 652.917 1306.1 662.889C1303.21 683.093 1298.86 703.089 1293.09 722.67C1290.21 732.476 1286.8 742.072 1283.41 751.707C1281.72 756.504 1279.75 761.186 1277.73 765.846C1276.66 768.299 1275.56 770.738 1274.45 773.172C1274.86 769.734 1274.86 766.204 1275.06 762.787C1275.35 757.89 1275.72 753.004 1276.05 748.111C1276.74 738.183 1277.35 728.247 1277.89 718.31C1279.83 682.875 1281.25 647.409 1281.14 611.918C1281.09 594.17 1280.73 576.422 1279.96 558.691C1279.61 550.342 1278.91 542 1278.29 533.661L1278.15 531.876C1277.6 524.391 1276.94 516.89 1275.8 509.471C1276.13 508.71 1276.43 507.94 1276.65 507.15L1276.72 506.853L1276.67 506.861C1276.72 506.629 1276.74 506.399 1276.72 506.171ZM1256.84 475.677C1256.79 475.472 1256.5 475.489 1256.44 475.677C1255.15 480.041 1255.61 484.84 1256.72 489.231C1257.32 491.609 1258.18 493.918 1259.21 496.144L1259.58 496.923C1260.46 498.817 1261.46 500.77 1263.18 501.952C1263.9 502.444 1265.19 502.475 1265.91 501.952L1266.28 501.673C1266.34 501.626 1266.4 501.577 1266.46 501.528C1267.13 500.965 1267.46 499.721 1267.15 498.901C1266.35 496.785 1264.54 495.231 1263.29 493.346C1262.18 491.67 1261.2 489.902 1260.38 488.065C1258.63 484.09 1257.84 479.871 1256.84 475.677Z" fill="black"/>
<path fill-rule="evenodd" clip-rule="evenodd" d="M1226.32 317.494C1201.6 317.494 1176.03 336.701 1166.97 348.957C1156.49 363.129 1148.23 431.161 1152.1 454.245C1155.98 477.33 1175.24 502.491 1208.68 502.491C1242.11 502.491 1262.46 498.363 1263.28 492.367C1263.82 488.37 1271.17 475.246 1285.33 452.996C1299.81 448.914 1307.08 441.997 1307.14 432.245C1307.19 422.494 1303.31 415.844 1295.5 412.296C1298.28 373.812 1296.17 349.561 1289.15 339.542C1278.62 324.513 1251.04 317.494 1226.32 317.494Z" fill="#FFDBB4"/>
<path fill-rule="evenodd" clip-rule="evenodd" d="M1242.99 280.22C1239.66 276.298 1233.8 280.005 1233.93 284.291C1232.61 284.651 1231.04 285.893 1230.44 287.513C1229.13 287.428 1227.81 287.688 1226.63 288.369L1226.38 288.06C1222.26 283.028 1216.82 278.71 1211.21 282.415C1209.68 283.424 1208.99 285.091 1209.33 286.897L1209.36 287.025L1209.23 286.467C1209.11 285.937 1209.3 286.998 1209.37 287.222L1209.38 287.248C1209.52 287.625 1209.67 287.816 1209.81 288.101C1204.06 284.007 1195.3 286.404 1199.92 294.328L1198.04 293.595C1191.55 291.081 1183.48 288.382 1177.57 292.902C1174.92 295.452 1177.86 298.852 1180.55 299.676L1180.09 299.598C1174.92 298.718 1164.13 296.543 1162.59 303.29C1162.03 305.717 1163.65 307.491 1165.69 308.468C1161.37 308.452 1157.12 309.165 1153.38 311.276C1149.83 313.806 1152.7 317.992 1156.42 317.81C1155.27 319.237 1154.88 321.652 1156 323.194C1153.89 323.75 1151.94 324.464 1150.14 325.577L1149.65 325.641C1146.06 326.09 1141.97 326.357 1140 329.888C1137.09 337.551 1147.43 337.246 1151.87 334.555C1151.61 334.984 1151.41 335.453 1151.31 335.953L1149.87 336.358C1144.44 337.871 1138.3 339.542 1134.8 344.121C1133.2 346.755 1135.43 351.233 1138.78 350.433C1129.7 354.765 1133.18 366.176 1142.06 360.24C1142.47 360.625 1142.98 360.911 1143.51 361.037L1141.63 362.055C1136.88 364.665 1131.16 368.238 1132.15 374.164C1133.09 377.3 1137.43 376.727 1139.64 375.527C1135.79 378.849 1132.15 382.446 1128.85 386.335L1127.93 387.425C1125.36 390.512 1120.89 396.194 1125.73 399.163C1131.7 402.208 1134.68 393.216 1138.15 390.007C1135.37 396.553 1144.4 401.119 1147.55 394.525C1148.08 394.618 1148.61 394.628 1149.13 394.557C1146.41 397.442 1139.07 417.185 1148.21 412.855C1149.66 411.313 1150.94 409.626 1152.11 407.856C1150.64 419.168 1149.57 430.533 1148.88 441.906L1148.63 446.028C1148.38 450.305 1148.19 454.599 1148.67 458.861C1149.22 463.823 1150.64 468.479 1152.8 472.974C1154.78 477.12 1157.34 480.96 1160.27 484.491C1161.84 486.38 1163.5 488.218 1165.55 489.6C1167.18 490.7 1169.08 491.425 1170.92 492.123C1173.9 495.107 1177.72 497.364 1181.46 499.166C1187.63 502.13 1194.31 503.766 1201.07 504.586C1207.99 505.42 1214.97 505.219 1221.83 504.028C1228.38 502.893 1235.4 499.991 1239.44 494.462C1239.79 493.986 1239.14 493.537 1238.71 493.733C1227 499.166 1213.84 500.584 1201.07 498.87C1195.12 498.071 1189.26 496.422 1183.82 493.86C1179.23 491.7 1175.36 488.558 1171.24 485.713C1170.44 484.643 1169.63 483.591 1168.71 482.614L1167.27 481.1C1166.19 479.962 1165.13 478.809 1164.17 477.565C1161.2 473.729 1158.74 469.378 1157.12 464.801C1153.96 455.89 1154.81 446.217 1155.37 436.931L1155.42 436.112C1155.99 426.18 1156.93 416.282 1158.23 406.42C1158.77 402.316 1159.37 398.218 1160.03 394.13C1161.08 392.412 1162.2 390.75 1163.46 389.193C1162.44 393.184 1165.99 398.734 1170.34 396.1C1175.32 391.83 1175.08 384.938 1179.26 379.71C1183.59 373.007 1213.46 359.971 1222.34 358.141C1220.91 360.227 1218.29 361.68 1217.68 364.142C1206.76 373.815 1224.56 378.964 1230.12 365.179C1230 369.768 1229.54 374.318 1228.52 378.797C1227.03 382.911 1225.87 394.831 1233.31 391.234C1236.87 392.265 1239.58 389.224 1240.03 385.795C1242.6 393.545 1240.17 405.929 1244.89 411.641C1246.33 413.143 1248.57 412.143 1249.32 410.427C1253.68 409.282 1253.31 404.185 1253.84 400.537C1257.82 415.078 1262.8 425.172 1263.48 440.34C1260.4 444.733 1267.15 447.963 1270.05 444.443C1274.12 438.554 1270.37 430.502 1269.41 424.054C1270.56 423.995 1271.69 423.486 1272.63 422.374C1273.15 424.397 1272.85 427.062 1272.68 429.258C1275.26 439.364 1285.06 432.891 1284.66 424.692C1285.08 427.006 1285.4 429.342 1285.61 431.695C1283.71 433.879 1282.31 436.493 1281.48 439.267C1280.88 441.272 1282.91 442.474 1284.47 442.183C1285.29 445.007 1288.87 447.044 1291.23 444.345C1293.56 441.985 1293.96 438.575 1294.15 435.18C1294.47 434.834 1294.67 434.382 1294.63 433.834C1294.61 433.319 1294.48 432.884 1294.28 432.516C1294.32 431.822 1294.37 431.141 1294.44 430.483C1296.25 436.101 1295.07 441.989 1294.92 447.744C1291.73 449.54 1288.1 450.308 1284.45 451.066L1283.92 451.176C1282.79 451.412 1282.44 453.096 1283.28 453.803C1281.02 456.02 1279.07 458.665 1277.17 461.104C1274.65 464.341 1272.23 467.705 1269.88 471.076L1268.5 473.057C1264.47 478.81 1258.9 486.603 1261.39 493.689C1261.73 494.662 1263.15 495.012 1263.71 493.99C1265.52 490.63 1266.54 486.929 1268.26 483.53C1269.95 480.196 1272.06 477.106 1274.15 474.017L1275.36 472.227C1277.36 469.236 1279.35 466.214 1281.19 463.134L1282.48 461C1283.68 458.987 1284.88 456.906 1285.77 454.741C1288.93 455.507 1292.24 454.958 1295.28 453.635L1295.32 453.846L1295.39 454.227C1295.83 456.056 1298.35 457.306 1299.95 456.109C1303.8 453.2 1305.37 448.871 1305.78 444.241C1306.56 442.933 1307.21 441.553 1307.75 440.123C1308 442.974 1309.1 445.738 1312.48 445.653C1318.35 445.17 1318.93 439.615 1317.34 434.09C1324.29 436.217 1325.1 426.369 1322.91 421.179C1323.72 420.936 1324.48 420.45 1324.91 419.795L1325.27 420.428C1326.6 422.745 1328.12 424.994 1330.23 426.197C1333.17 427.877 1337.46 425.796 1337.26 422.096C1336.63 416.068 1331.36 411.475 1328.15 406.644C1328.72 406.725 1329.31 406.704 1329.9 406.596C1336.31 410.183 1339.37 401.74 1337.11 396.848C1335.46 392.454 1332.46 388.675 1329.25 385.343L1330.19 385.907C1331.89 386.911 1333.78 387.879 1335.65 387.485C1347.87 395.535 1351.89 381.997 1338.17 377.766L1338.18 377.703C1339.55 376.372 1340.15 374.266 1339.08 372.163C1344.11 373.934 1351.29 369.927 1346.86 364.45C1343.97 361.721 1340.55 359.372 1336.77 358.144C1336.96 357.139 1337.02 356.116 1336.94 355.087L1337.17 355.118C1339.56 355.462 1342.5 356.44 1343.97 353.862C1344.72 352.564 1344.63 350.426 1343.41 349.416C1339.19 345.942 1334.38 343.052 1329.16 341.88C1328.96 341.243 1328.77 340.609 1328.55 339.978C1333.01 339.895 1338.02 333.961 1332.9 330.599C1328.39 328.3 1323.76 326.822 1318.67 326.959C1321.65 324.014 1319.9 318.676 1315.93 317.855C1318.53 312.317 1312.12 309.46 1307.34 310.333C1307.51 307.873 1306.2 305.131 1303.67 304.513C1305 296.727 1296.77 297.464 1291.62 299.309C1293.34 296.308 1291.57 292.776 1288.53 291.724C1283.54 290.593 1278.77 295.353 1274.97 298.272C1276.27 295.226 1275.18 292.419 1272.09 291.205C1268.92 289.96 1265.5 292.367 1262.85 294.003C1261.4 292.189 1258.94 291.598 1256.74 291.71C1256.5 291.029 1256.16 290.46 1255.71 290.011C1255.72 285.814 1248.6 283.507 1246.11 287.416C1245.68 284.698 1244.57 282.082 1242.99 280.22ZM1153.8 356.342L1153.72 356.794C1153.61 356.887 1153.51 356.986 1153.41 357.081C1153.09 357.157 1152.79 357.236 1152.5 357.318C1152.92 356.974 1153.36 356.655 1153.8 356.342ZM1148.3 345.328L1148.39 345.462C1148.41 345.484 1148.43 345.506 1148.45 345.527C1148.18 345.629 1147.91 345.733 1147.64 345.841L1147.24 346.005L1147.1 346.067C1147.5 345.817 1147.9 345.57 1148.3 345.328ZM1212.47 289.881L1212.71 289.941C1212.79 289.959 1212.86 289.977 1212.93 289.993C1212.95 289.999 1212.97 290.002 1213 290.011L1212.93 289.997C1213.05 290.084 1213.2 290.186 1213.32 290.268C1213.2 290.258 1213.08 290.246 1212.96 290.239C1212.79 290.119 1212.63 290 1212.47 289.881Z" fill="black"/>
<path fill-rule="evenodd" clip-rule="evenodd" d="M1189.49 462.417C1188.82 461.252 1187.28 460.174 1185.87 460.34C1179.55 461.08 1179.57 468.741 1182 473.213C1184.17 477.179 1188.64 479.506 1193.12 479.166C1197.83 478.809 1201.84 476.042 1203.6 471.638C1204.77 468.725 1205.31 463.348 1202.21 461.39C1202.15 461.353 1202.05 461.363 1202.01 461.415C1200.52 463.147 1200.46 465.748 1199.16 467.676C1197.94 469.47 1196.06 470.951 1193.86 471.179C1192.21 471.35 1190.54 470.756 1189.9 469.277C1189.55 468.477 1189.59 468.042 1189.72 467.491L1189.84 467.013C1190.25 465.336 1190.44 464.061 1189.49 462.417ZM1187.8 428.821C1184.51 430.824 1179.49 435.494 1183.03 440.461C1187.2 444.839 1193.21 439.819 1196.17 437.548C1198.92 435.788 1202 440.314 1199.45 442.369C1178.06 458.208 1169.39 429.345 1186.14 426.466C1187.98 426.148 1188.67 428.201 1187.8 428.821ZM1222.59 415.085C1220.57 412.051 1215.96 412.498 1214.84 416.099C1214.24 418.05 1215.07 419.803 1215.03 421.752C1214.99 423.397 1215.1 425.231 1215.6 426.824C1216.75 430.459 1220.02 433.025 1223.89 432.919C1227.74 432.813 1231.14 430.374 1232.75 426.938C1234.37 423.489 1234.03 419.92 1232.84 416.413C1232.79 416.244 1232.57 416.162 1232.43 416.304C1231.04 417.791 1230.01 419.358 1228.95 421.022L1227.87 422.727C1227.04 424.011 1225.84 425.65 1224.29 425.548L1224.05 425.526C1223.62 425.488 1223.69 425.574 1223.36 424.987C1223.21 424.715 1223.23 424.211 1223.16 423.891L1223.13 423.783L1223.15 423.724C1223.18 423.569 1223.21 423.277 1223.24 422.77L1223.24 422.657C1223.36 420.285 1224.03 417.236 1222.59 415.085ZM1171.33 417.106C1171.7 413.225 1166.24 412.363 1164.43 415.234C1163.48 416.732 1163.21 418.614 1163 420.396L1162.9 421.242C1162.68 423.073 1162.6 424.978 1163.39 426.685C1164.64 429.374 1167.37 430.796 1170.3 430.571C1173.1 430.356 1175.66 428.73 1177.01 426.261C1178.21 424.06 1179.41 419.76 1177.95 417.464C1177.86 417.324 1177.68 417.307 1177.56 417.414C1176.18 418.639 1175.96 420.873 1175.14 422.47C1174.29 424.116 1173.01 425.72 1171.06 425.97C1169.2 426.209 1168.49 425.193 1168.97 423.419C1169.58 421.128 1171.1 419.57 1171.33 417.106ZM1221.12 392.011L1220.23 391.669C1217.17 390.514 1212.98 389.179 1210.49 391.665C1208.96 393.198 1208.66 395.456 1209.76 397.327C1211.09 399.593 1213.46 399.649 1215.76 399.983C1218.37 400.363 1221.03 401.085 1223.46 402.114C1226.2 403.273 1228.74 404.718 1231.23 406.333C1233.6 407.867 1235.96 410.374 1238.79 410.846C1238.91 410.865 1239.04 410.816 1239.07 410.689C1239.71 407.917 1237.93 405.191 1236.33 403.028C1234.4 400.411 1232.06 398.263 1229.44 396.337C1226.92 394.478 1224.04 393.134 1221.12 392.011ZM1165.6 401.863L1165.32 401.815C1163.47 401.506 1161.79 401.577 1160.39 403.046C1159.33 404.166 1158.92 405.618 1159.42 407.099C1159.89 408.465 1160.94 409.854 1162.46 410.14C1167.6 411.108 1173.29 410.947 1178.46 410.215C1180.82 409.88 1183.21 409.47 1185.51 408.823L1186.57 408.516C1188.49 407.967 1190.69 407.393 1192.08 405.98C1192.59 405.472 1192.3 404.745 1191.7 404.51C1189.26 403.555 1185.92 404.063 1183.33 403.989C1180.31 403.902 1177.28 403.676 1174.27 403.364C1171.34 403.059 1168.49 402.394 1165.6 401.863Z" fill="black"/>
<path fill-rule="evenodd" clip-rule="evenodd" d="M1148.76 431.479C1154.05 436.954 1162.9 438.524 1169.94 435.588C1188.04 428.026 1179.18 404.439 1165.23 398.105C1163.48 397.67 1161.15 396.639 1159.03 396.405C1158.84 396.311 1158.42 396.584 1157.92 396.325C1142.53 398.044 1139.02 421.937 1148.76 431.479ZM1207.12 432.88C1213.06 440.761 1224.11 443.194 1233.13 439.529C1250.96 432.507 1244.64 411.592 1232.44 403.392C1206.67 393.707 1196.03 418.348 1207.12 432.88ZM1245.77 415.417C1245.79 415.409 1245.8 415.404 1245.82 415.397C1245.73 415.355 1245.63 415.314 1245.54 415.272C1245.57 415.352 1245.6 415.431 1245.63 415.51C1245.68 415.479 1245.72 415.441 1245.77 415.417ZM1136.49 406.897C1137.95 406.9 1140.05 407.139 1141.25 408.148C1144.22 398.132 1155.18 388.861 1164.71 395.621C1172.22 398.035 1177.79 403.391 1180.96 410.51C1186.66 407.114 1195.64 408.564 1200.59 413.055C1203.83 402.342 1211.81 398.59 1221.3 398.035C1231.67 396.338 1242 406.406 1245.22 414.483C1247.9 414.177 1251.91 413.325 1254.43 414.979C1270.79 410.687 1299.4 408.32 1302.73 410.704C1305.1 411.615 1306.4 417.212 1303.09 417.513C1300.2 417.104 1303.43 413.413 1300.52 413.01C1285.02 412.049 1269.97 415.171 1254.64 416.48C1253.27 418.323 1248.85 418.939 1246.49 418.199C1250.2 431.9 1242.18 441.221 1230.16 444.014C1211.54 448.29 1195.35 431.634 1200.22 414.309C1194.58 411.503 1188.09 411.624 1181.95 413.102C1192.21 450.889 1131.37 449.193 1140.87 409.444C1134.55 412.59 1133.17 407.532 1136.49 406.897Z" fill="black"/>
<path d="M1069.54 628.957C1069.37 626.306 1069.87 623.413 1071.53 621.538C1073.19 619.651 1076.01 618.781 1078.93 618.425C1081.84 618.069 1084.84 618.255 1086.63 619.808C1088.4 621.368 1088.95 624.323 1089.59 627.088C1090.22 629.863 1090.94 632.459 1090.34 634.827C1089.73 637.183 1087.79 639.319 1085.34 640.674C1082.89 642.05 1079.93 642.645 1077.52 641.817C1075.1 640.979 1073.21 638.72 1071.87 636.384C1070.52 634.035 1069.71 631.608 1069.54 628.957Z" fill="#9093D1"/>
<path d="M953.269 666.503C952.933 661.201 953.928 655.415 957.255 651.665C960.567 647.891 966.211 646.152 972.045 645.44C977.879 644.728 983.874 645.099 987.447 648.204C990.997 651.325 992.095 657.235 993.372 662.767C994.627 668.314 996.077 673.507 994.875 678.243C993.656 682.956 989.762 687.227 984.865 689.939C979.962 692.689 974.055 693.878 969.228 692.225C964.384 690.549 960.618 686.031 957.932 681.357C955.23 676.66 953.606 671.806 953.269 666.503Z" fill="#F7859C"/>
<path d="M1020 732.356C1019.66 727.053 1020.66 721.268 1023.99 717.517C1027.3 713.744 1032.94 712.005 1038.78 711.293C1044.61 710.581 1050.61 710.952 1054.18 714.056C1057.73 717.176 1058.83 723.087 1060.1 728.618C1061.36 734.167 1062.81 739.36 1061.61 744.096C1060.39 748.807 1056.49 753.08 1051.6 755.79C1046.69 758.541 1040.79 759.73 1035.96 758.077C1031.12 756.401 1027.35 751.883 1024.66 747.209C1021.96 742.511 1020.34 737.658 1020 732.356Z" fill="#F7859C"/>
<path d="M987.345 586.342C986.831 578.061 988.401 569.023 993.613 563.157C998.799 557.255 1007.63 554.525 1016.75 553.398C1025.87 552.272 1035.25 552.837 1040.82 557.676C1046.36 562.542 1048.07 571.77 1050.05 580.406C1052 589.068 1054.25 597.174 1052.36 604.573C1050.44 611.936 1044.34 618.619 1036.68 622.864C1029.01 627.172 1019.77 629.045 1012.23 626.475C1004.66 623.869 998.785 616.822 994.598 609.529C990.384 602.199 987.858 594.623 987.345 586.342Z" fill="#9FD8E5"/>
<path d="M1017.14 666.504C1016.8 661.202 1017.8 655.416 1021.13 651.665C1024.44 647.892 1030.08 646.153 1035.92 645.441C1041.75 644.729 1047.75 645.1 1051.32 648.204C1054.87 651.326 1055.97 657.236 1057.24 662.768C1058.5 668.315 1059.95 673.508 1058.75 678.244C1057.53 682.956 1053.63 687.228 1048.74 689.939C1043.83 692.689 1037.93 693.878 1033.1 692.225C1028.26 690.549 1024.49 686.031 1021.8 681.357C1019.1 676.661 1017.48 671.807 1017.14 666.504Z" fill="#FFDBB4"/>
</svg>
