<svg width="540" height="649" viewBox="0 0 540 649" fill="none" xmlns="http://www.w3.org/2000/svg">
<path d="M381.184 153.212C430.952 185.228 476.284 232.462 488.012 287.302C500.058 342.144 478.502 404.592 446.486 461.97C414.468 519.347 371.674 571.018 320.32 582.747C268.966 594.159 208.736 564.995 150.724 539.952C92.7135 514.592 36.604 493.353 2.0511 451.192C-32.1849 409.031 -44.8649 345.63 -36.9399 283.498C-29.3319 221.05 -1.1189 159.869 45.48 127.218C92.396 94.567 157.698 90.446 217.294 97.103C277.208 103.76 331.414 121.195 381.184 153.212Z" fill="#FFDBB4"/>
<path fill-rule="evenodd" clip-rule="evenodd" d="M229.579 193.44L224.114 206.962L227.125 249.821L229.365 250.17C253.028 253.841 269.107 255.695 277.603 255.733L277.866 255.734C286.422 255.734 296.674 253.821 308.622 249.996L309.166 249.821L310.546 217.729H307.293L301.409 203.923L301.414 203.918C301.479 204.029 301.547 204.136 301.617 204.24C304.07 207.871 305.492 204.939 311.255 206.223C318.155 207.761 321.219 214.741 327.294 219.957C330.114 222.379 336.034 223.52 338.867 225.186L341.843 226.936C351.168 232.44 361.885 239.127 367.512 247.837C374.109 258.049 378.656 267.739 382.855 279.099C391.906 303.584 398.188 328.569 402.676 354.264C407.226 380.306 409.96 406.672 412.049 433.017C413.016 445.225 413.836 457.444 414.517 469.671L414.685 472.728C415.042 479.381 414.731 485.891 408.687 489.988C404.357 492.923 398.61 493.37 393.529 493.671L393.253 493.688C355.69 495.892 318.126 498.081 280.562 500.274L224.218 503.571C214.843 504.121 205.467 504.667 196.092 505.209L173.207 506.532C162.422 507.146 151.623 507.678 140.823 507.615C127.235 507.536 113.704 506.531 100.241 504.719L99.0537 504.557C90.5837 503.386 78.3027 500.425 76.7813 490.259C76.5629 488.799 77.8467 487.887 78.9245 488.097C78.5698 486.442 78.3496 484.785 78.1392 483.345C77.2365 477.194 76.6697 471.003 76.3896 464.793C75.8277 452.366 76.3011 439.881 77.5425 427.508C79.5961 407.038 82.4748 386.604 85.4493 366.241L86.1116 361.717C89.2754 340.143 93.0423 318.606 98.9367 297.591C104.382 278.178 112.876 257.983 124.564 245.708C136.253 233.432 152.917 222.767 170.041 216.235C171.524 215.669 200.987 209.213 202.972 210.153L203.328 209.873C209.202 205.232 217.582 197.079 226.21 199.646L226.229 199.614C226.433 199.24 227.23 196.735 228.331 193.44H229.579Z" fill="#8FA7DF"/>
<path fill-rule="evenodd" clip-rule="evenodd" d="M235.81 175.443C242.946 166.389 250.468 163.51 261.583 164.185C269.121 163.915 276.639 165.874 283.021 170.199C288.869 173.258 294.055 177.467 297.757 182.887C300.923 187.52 298.517 198.969 301.409 203.923C301.381 204.462 301.366 204.953 301.366 205.397C301.366 209.684 304.347 214.467 310.309 219.748L310.546 219.957V251.107C300.523 254.192 288.114 255.734 273.319 255.734C258.744 255.734 243.585 253.285 227.841 248.387L227.125 248.162L224.114 214.307L227.125 204.939L227.124 197.092L228.288 193.582C230.348 187.411 233.502 178.372 235.81 175.443Z" fill="#694D3D"/>
<path fill-rule="evenodd" clip-rule="evenodd" d="M227.125 248.162C244.767 253.304 259.61 255.875 271.654 255.875C283.698 255.875 296.202 253.304 309.167 248.162L306.012 502.049L255.236 502.67L227.125 248.162Z" fill="#9FD8E5"/>
<path fill-rule="evenodd" clip-rule="evenodd" d="M140.01 359.018C139.815 358.651 140.269 358.321 140.57 358.586C147.41 364.593 150.991 374.241 151.742 383.159C152.537 392.615 151.409 402.406 150.978 411.859C150.498 422.388 150.067 432.921 149.482 443.445C148.887 454.122 148.247 464.796 147.698 475.476L146.463 499.5C146.331 502.06 146.616 505.209 145.634 507.598C144.113 511.302 139.593 510.729 138.644 507.633L138.614 507.531L138.527 507.598C137.689 504.808 138.317 501.494 138.459 498.61L139.753 472.362C140.667 453.809 141.482 435.256 142.464 416.707L142.798 410.524C143.257 402.201 143.609 393.898 143.892 385.577L143.984 382.803C144.252 374.448 144.039 366.561 140.01 359.018ZM305.822 205.001C309.633 204.639 312.511 205.904 315.97 207.236C317.477 207.816 318.904 208.486 320.35 209.18C322.16 210.049 323.324 211.584 324.439 213.208L325.035 214.083C329.676 220.889 332.799 228.741 336.322 236.151C340.443 244.819 344.605 253.468 348.638 262.177L350.628 266.468C351.623 268.614 352.615 270.76 353.593 272.914L355.281 276.662C356.978 280.463 358.498 284.485 356.081 288.406C353.832 292.053 349.847 294.875 346.691 297.694C344.058 300.046 341.425 302.398 338.791 304.75C344.236 310.206 347.891 317.077 350.039 324.446C353.092 323.173 356.818 322.929 359.974 322.378C364.392 321.607 364.933 328.301 360.764 328.22C357.684 328.159 354.071 328.474 350.913 327.825C351.461 330.246 351.86 332.704 352.113 335.169C353.441 348.086 350.54 361.079 347.515 373.578L347.266 374.604C343.98 388.132 340.865 401.695 338.078 415.335C335.285 429.004 332.773 442.731 330.543 456.503C328.273 470.521 326.666 484.617 324.94 498.709C324.679 500.842 323.338 502.67 320.983 502.67C319.021 502.67 316.779 500.838 317.025 498.709C318.806 483.363 321.333 468.097 323.843 452.855C328.166 426.608 333.607 400.588 339.866 374.74L340.96 370.238C343.776 358.563 346.331 346.534 344.918 334.492C343.768 324.686 339.671 314.231 331.575 308.14L331.328 307.957C329.437 306.569 328.709 303.914 330.572 302.086C331.757 300.923 332.944 299.761 334.132 298.6L341.259 291.635L342.696 290.229C343.894 289.058 345.098 287.894 346.338 286.767C347.088 286.084 349.123 284.783 349.271 283.661C349.368 282.929 348.502 281.643 348.15 280.968L346.542 277.718C345.628 275.865 344.743 273.999 343.851 272.135C342.003 268.274 340.127 264.425 338.319 260.545L327.456 237.248C324.391 230.676 321.661 223.737 317.654 217.661L316.864 216.476C316.205 215.479 315.622 214.519 315.205 213.299C314.805 212.126 314.302 210.837 313.561 209.836C311.826 207.486 308.509 206.153 305.733 205.66C305.332 205.589 305.478 205.034 305.822 205.001ZM222.269 198.882C222.511 198.882 222.547 199.227 222.325 199.294C218.976 200.302 215.777 201.928 213.166 204.275C211.918 205.398 210.66 206.672 209.889 208.184C209.594 208.763 209.431 209.374 209.311 210.008L209.273 210.22C209.074 211.364 208.789 212.002 208.208 212.918L208.108 213.074C204.791 218.201 202.466 223.896 200.34 229.598L195.711 242.031L191.084 254.466C189.594 258.472 188.102 262.479 186.611 266.486C185.788 268.698 184.941 270.901 184.094 273.104C183.728 274.058 183.334 275.005 182.999 275.971C182.953 276.103 182.806 276.899 182.697 277.092L182.734 277.157C183.667 278.728 186.156 280.041 187.566 281.182L192.423 285.112C195.887 287.915 199.439 290.639 202.798 293.567C204.908 295.405 203.595 298.697 201.242 299.465C197.299 300.75 193.435 302.289 189.551 303.744C187.982 304.331 186.348 304.843 184.797 305.49L183.853 305.899C183.485 306.065 183.662 306.063 183.677 306.744C183.691 307.458 183.894 308.203 184.01 308.905C185.318 316.822 186.705 324.726 188.169 332.616C193.347 360.517 199.533 388.214 206.588 415.699C210.152 429.578 213.974 443.389 217.615 457.249C221.248 471.071 226.028 484.695 230.592 498.232C231.88 502.049 225.832 503.693 224.576 499.892C219.315 483.97 214.503 467.91 209.534 451.898C200.705 423.448 193.747 394.379 187.594 365.241C184.544 350.799 181.755 336.302 179.228 321.76C178.75 319.006 178.281 316.252 177.821 313.495L177.152 309.441C176.693 306.551 176.431 303.541 178.676 301.254C180.867 299.021 184.629 298.23 187.513 297.183L187.723 297.106C189.558 296.421 191.406 295.761 193.247 295.08C190.535 292.943 187.856 290.759 185.151 288.623C182.968 286.9 180.751 285.212 178.6 283.45C176.826 281.996 175.38 280.129 175.195 277.765C175.006 275.349 176.041 273.107 176.875 270.891L176.955 270.677C177.775 268.465 178.596 266.253 179.439 264.049L184.651 250.406C187.964 241.736 191.137 232.996 194.621 224.394C195.999 220.99 197.501 217.639 199.276 214.421C200.132 212.869 201.05 211.351 202.048 209.886C203.165 208.244 204.18 207.443 205.911 206.537C208.68 205.088 210.854 202.659 213.634 201.165C216.363 199.699 219.171 198.916 222.269 198.882ZM231.258 183.415C231.364 183.233 231.645 183.314 231.648 183.521C231.721 187.83 230.698 192.233 230.069 196.493C229.436 200.769 229.234 205.282 228.319 209.512C228.3 209.709 228.262 209.903 228.208 210.094L228.165 210.239C227.779 211.424 226.775 212.428 225.544 212.742C225.931 214.89 226.296 217.041 226.603 219.204C227.13 222.921 227.611 226.645 228.084 230.369L228.65 234.838C229.185 239.05 229.705 243.264 230.219 247.479C231.526 248.026 232.861 248.477 234.227 248.869C237.374 249.77 240.597 250.136 243.845 250.455C250.458 251.104 257.122 251.405 263.759 251.774L265.18 251.854C272.642 252.282 280.144 252.358 287.586 251.592C291.277 251.212 294.938 250.574 298.537 249.671C300.366 249.211 302.143 248.526 303.968 248.077C304.573 247.928 305.114 247.585 305.721 247.218C305.99 246.877 306.368 246.619 306.86 246.52L306.994 246.497L307.126 246.477L307.171 246.457L307.168 246.471C307.541 246.421 307.896 246.421 308.23 246.467C308.364 243.181 308.508 239.895 308.689 236.61C309.174 227.787 310.515 218.583 308.725 209.837C308.665 209.543 309.065 209.439 309.169 209.714C312.681 218.973 312.286 229.098 312.463 238.843C312.636 248.372 312.531 257.909 312.484 267.441C313.166 267.732 313.775 268.125 314.257 268.678C315.219 269.782 315.496 271.702 314.257 272.768C313.707 273.24 313.099 273.568 312.454 273.796C312.42 282.077 312.361 290.358 312.278 298.64C313.852 299.856 313.999 302.744 312.219 303.945C311.923 330.763 311.436 357.581 311.032 384.395L310.186 440.651C310.073 448.147 309.887 455.642 309.82 463.136L309.873 463.157L310.06 463.244C310.375 463.392 310.844 463.632 310.942 463.877C310.967 463.941 310.974 463.985 310.971 464.018C311.487 464.09 311.999 464.335 312.441 464.755C313.534 465.794 313.312 467.36 312.441 468.418L312.209 468.701C311.666 469.36 310.635 469.614 309.794 469.48C309.802 474.158 309.832 478.836 309.817 483.514C309.813 484.942 309.791 486.371 309.766 487.8L309.708 491.226C309.668 493.18 309.495 495.665 307.495 496.543C305.238 497.534 303.214 496.722 302.3 494.428C302.052 493.807 302.106 493.228 302.196 492.613C302.168 491.69 302.023 490.62 302.041 489.764L302.116 486.192C302.127 485.642 302.15 485.091 302.165 484.54L302.1 484.547C294.08 484.937 286.004 484.747 277.971 484.742L274.398 484.747C271.418 484.75 268.43 484.734 265.454 484.62L264.338 484.572C262.109 484.468 259.766 484.434 257.455 484.235C257.75 486.608 258.025 488.983 258.27 491.361C258.502 493.615 256.177 495.531 254.103 495.531C251.641 495.531 250.232 493.593 249.937 491.361C248.545 480.83 247.975 470.201 246.646 459.663C245.455 450.225 244.422 440.765 243.372 431.309L243.021 428.157C239.18 393.745 235.45 359.319 231.883 324.877L230.221 308.777C228.544 292.549 226.856 276.32 225.433 260.068C224.619 250.776 223.869 241.483 223.164 232.182C222.646 225.35 222.321 218.555 222.109 211.735C221.274 210.876 220.856 209.62 221.226 208.324C221.442 207.568 221.693 206.815 221.959 206.064C221.942 205.326 221.925 204.588 221.91 203.849C221.897 203.15 222.606 202.79 223.174 202.906C224.206 200.406 225.342 197.927 226.29 195.451C227.825 191.442 229.09 187.123 231.258 183.415ZM145.543 226.735C161.587 216.672 180.685 209.431 199.813 210.21C200.249 210.228 200.371 210.892 199.919 210.992C189.716 213.272 179.401 216.049 169.742 220.091C160.054 224.145 150.843 229.603 142.638 236.163C127.501 248.266 115.736 264.008 107.989 281.753C103.451 292.148 100.27 303.122 97.4925 314.1C94.5533 325.719 92.131 337.462 90.1169 349.277C86.1388 372.613 83.8227 396.207 82.5904 419.841C81.3365 443.883 81.8533 467.942 80.9591 491.987C80.8045 496.153 74.8548 496.072 74.5523 491.987C72.5262 464.649 73.6487 436.875 75.5225 409.556C77.2074 384.998 80.1497 360.491 84.8876 336.328L85.3003 334.233C89.7296 311.878 95.072 288.981 105.78 268.735C114.922 251.45 129.035 237.09 145.543 226.735ZM368.342 333.58C368.426 333.34 368.742 333.343 368.826 333.58C370.655 338.704 370.721 344.486 371.207 349.887L371.245 350.302C371.712 355.229 372.063 360.162 372.389 365.098L372.51 366.95C373.821 387.09 375.458 407.207 377.926 427.241C380.385 447.199 383.71 467.018 387.305 486.798C387.706 489.001 386.731 491.244 384.423 491.878C382.389 492.438 379.778 491.184 379.348 488.994C377.116 477.641 375.311 466.272 373.7 454.821C370.866 434.655 368.75 414.397 367.39 394.079C366.708 383.874 366.287 373.673 366.12 363.446C366.043 358.701 366.166 353.945 366.419 349.205L366.479 348.111C366.758 343.266 366.729 338.2 368.342 333.58ZM194.973 461.858C195.188 461.742 195.453 461.981 195.317 462.203C192.211 467.256 188.008 471.613 183.946 475.907C179.699 480.396 175.558 485.02 171.225 489.421C168.095 492.6 163.059 487.472 166.363 484.555C171.008 480.454 175.863 476.558 180.591 472.549L182.658 470.795C186.535 467.517 190.526 464.269 194.973 461.858ZM342.53 459.328C342.298 458.885 342.828 458.527 343.188 458.82C345.694 460.859 347.94 463.292 350.36 465.444C352.756 467.576 355.242 469.565 357.796 471.504C360.36 473.451 362.98 475.321 365.671 477.09C367.903 478.557 370.203 479.732 372.541 480.951C373.623 481.09 374.626 481.622 375.428 482.63C376.696 484.224 376.831 487.23 375.072 488.614L374.756 488.862C372.703 490.477 370.265 490.674 368.244 488.862C365.987 486.84 363.854 484.614 361.686 482.476L361.035 481.838C358.706 479.572 356.434 477.233 354.291 474.789L352.352 472.581C348.754 468.475 345.009 464.049 342.53 459.328ZM330.987 222.598C330.57 222.321 330.827 221.577 331.342 221.755L332.286 222.081C336.229 223.453 340.287 224.974 343.867 227.085C347.715 229.354 351.267 232.057 354.661 234.956C361.686 240.958 367.663 248.338 372.742 256.031C382.933 271.467 389.236 289.146 394.324 306.834C399.75 325.694 403.928 344.961 407.339 364.281C410.804 383.916 413.478 403.729 415.235 423.591C416.101 433.375 416.682 443.165 416.974 452.983C417.125 458.034 417.12 463.081 417.078 468.134C417.067 469.433 417.076 470.732 417.091 472.03L417.14 475.927C417.166 478.391 417.461 480.98 416.876 483.387C415.934 487.261 409.534 486.538 409.744 482.578C409.551 481.261 409.543 479.899 409.593 478.535C409.563 478.359 409.53 478.18 409.493 477.997C409.388 477.474 409.478 476.989 409.683 476.572C409.716 475.918 409.746 475.267 409.757 474.628C409.799 472.027 409.796 469.436 409.724 466.835C409.573 461.351 409.355 455.868 409.135 450.387C408.695 439.434 408.083 428.477 407.196 417.551C404.109 379.52 397.591 341.272 386.644 304.684C381.559 287.693 374.549 271.014 364.497 256.332C360.035 249.814 355 243.793 349.419 238.206C343.802 232.583 337.613 226.989 330.987 222.598ZM255.236 467.762L255.994 473.254C256.374 476 256.749 478.747 257.106 481.496C259.527 481.165 262.004 481.026 264.338 480.819C268.423 480.457 272.536 480.281 276.633 480.112C285.105 479.762 293.619 479.156 302.1 479.198C302.187 479.199 302.269 479.204 302.352 479.211L302.772 468.375L296.814 468.366C291.765 468.358 286.718 468.315 281.669 468.271C277.123 468.232 272.574 468.226 268.028 468.131L266.08 468.085C262.633 467.992 258.826 468.184 255.236 467.762ZM303.272 452.033C303.029 452.062 302.782 452.086 302.519 452.097C301.339 452.147 300.149 452.112 298.968 452.122C296.453 452.144 293.939 452.161 291.424 452.16C286.394 452.16 281.365 452.19 276.336 452.251C271.159 452.314 265.986 452.404 260.808 452.414C258.3 452.418 255.799 452.352 253.291 452.282C253.697 455.848 254.121 459.412 254.589 462.967C258.483 462.441 262.671 462.706 266.477 462.67L266.971 462.663C272.166 462.575 277.365 462.64 282.561 462.646C287.906 462.653 293.25 462.67 298.596 462.714L302.987 462.75L302.995 462.529C303.124 459.034 303.207 455.534 303.272 452.033ZM251.36 434.971C251.846 439.181 252.303 443.398 252.769 447.613C253.079 447.566 253.392 447.524 253.712 447.491C256.224 447.228 258.731 447.003 261.252 446.846C266.277 446.535 271.302 446.37 276.336 446.235C281.512 446.096 286.689 445.99 291.867 445.916C294.383 445.881 296.896 445.885 299.412 445.902C300.592 445.91 301.784 445.873 302.962 445.952C303.103 445.962 303.237 445.976 303.37 445.992L303.459 439.662C303.474 438.607 303.49 437.553 303.507 436.498C299.619 436.738 295.666 436.647 291.781 436.648L290.885 436.65C286.004 436.672 281.12 436.605 276.239 436.504C271.204 436.399 266.179 436.234 261.152 435.911C259.116 435.781 257.094 435.607 255.069 435.384L254.056 435.268C253.174 435.164 252.267 435.08 251.36 434.971ZM303.908 417.109C294.544 417.853 285.23 418.164 275.842 418.256L274.433 418.268C266.136 418.331 257.771 418.674 249.455 418.454C249.952 422.768 250.448 427.083 250.948 431.397C252.139 431.341 253.335 431.341 254.499 431.299C256.867 431.213 259.227 431.192 261.596 431.186C266.477 431.175 271.358 431.218 276.239 431.208C281.27 431.197 286.299 431.112 291.329 431.017C295.407 430.941 299.528 430.634 303.617 430.645L303.908 417.109ZM304.304 398.702C303.219 399.063 301.938 399.086 300.534 399.15L296.909 399.331C295.229 399.414 293.548 399.491 291.867 399.552C286.265 399.758 280.664 399.949 275.061 400.128C269.32 400.31 263.551 400.416 257.809 400.235C254.996 400.146 252.207 399.999 249.403 399.764C248.709 399.706 248.003 399.668 247.295 399.618C247.947 405.334 248.603 411.05 249.26 416.765C257.537 415.749 265.877 415.116 274.143 414.064L281.618 413.109C289.089 412.155 296.554 411.219 304.052 410.429L304.304 398.702ZM304.703 380.092C303.111 380.485 301.296 380.466 299.768 380.562L299.484 380.582C296.588 380.802 293.683 380.912 290.78 380.983C285.089 381.124 279.395 381.194 273.702 381.229L270.279 381.25C265.716 381.277 261.155 381.288 256.591 381.182C253.663 381.114 250.741 380.97 247.816 380.824C246.939 380.779 246.043 380.75 245.144 380.705C245.756 386.117 246.374 391.528 246.99 396.939C247.951 396.786 248.917 396.67 249.838 396.514C252.196 396.116 254.549 395.797 256.924 395.512C262.068 394.896 267.239 394.452 272.407 394.077C277.713 393.692 283.023 393.367 288.329 392.994L292.088 392.729C293.34 392.642 294.593 392.558 295.847 392.481C297.987 392.35 300.475 392.498 302.598 392.032C303.173 391.792 303.811 391.737 304.451 391.874L304.703 380.092ZM305.185 358.308C304.634 359.008 303.811 359.375 302.83 359.502C297.721 360.166 292.48 360.272 287.327 360.585L286.419 360.642C281.098 360.993 275.775 361.269 270.45 361.552C264.981 361.842 259.512 362.079 254.038 362.27C251.714 362.351 249.378 362.36 247.051 362.331L246.054 362.316C245.098 362.299 244.097 362.302 243.094 362.269C243.649 367.33 244.21 372.39 244.778 377.449C245.801 377.337 246.824 377.253 247.816 377.147C250.74 376.838 253.66 376.532 256.591 376.301C262.144 375.863 267.701 375.6 273.264 375.324C278.956 375.042 284.651 374.855 290.344 374.589C293.104 374.459 295.864 374.299 298.616 374.045C300.544 373.867 302.835 373.21 304.848 373.452C304.958 368.404 305.072 363.356 305.185 358.308ZM305.634 338.794C305.547 338.929 305.445 339.06 305.321 339.181C303.072 341.406 300.299 341.234 297.318 341.468L297.135 341.482C294.214 341.728 291.291 341.962 288.366 342.173C282.519 342.596 276.661 342.891 270.806 343.154C264.814 343.424 258.783 343.61 252.785 343.487C248.944 343.408 244.921 343.422 241.003 343.048C241.605 348.621 242.21 354.194 242.82 359.766C243.921 359.559 245.03 359.399 246.08 359.234C248.727 358.817 251.376 358.398 254.038 358.092C259.357 357.479 264.677 356.906 270.007 356.389C274.564 355.946 279.12 355.497 283.681 355.093L286.419 354.856C291.86 354.398 297.371 353.643 302.83 353.531C303.73 353.513 304.748 354.003 305.263 354.776C305.384 349.449 305.509 344.121 305.634 338.794ZM306.012 322.997C304.622 323.166 303.125 323.07 301.842 323.112C298.6 323.218 295.357 323.316 292.114 323.412L272.656 323.987C266.032 324.182 259.384 324.329 252.756 324.235C249.841 324.194 246.913 324.189 243.999 324.03L243.028 323.971C241.828 323.891 240.356 323.88 238.919 323.734L240.616 339.464C244.515 338.901 248.533 338.69 252.398 338.359L253.224 338.286C258.926 337.767 264.655 337.423 270.366 337.036C276.225 336.639 282.076 336.157 287.927 335.664C290.851 335.418 293.775 335.172 296.698 334.903L297.059 334.868C299.819 334.579 302.415 333.965 304.859 335.594C305.217 335.832 305.497 336.15 305.689 336.507C305.796 332.004 305.9 327.5 306.012 322.997ZM306.465 304.639C294.615 305.116 282.763 305.478 270.904 305.637C264.229 305.727 257.563 305.664 250.888 305.524C247.994 305.463 245.076 305.325 242.184 305.103L241.101 305.016C239.726 304.9 238.282 304.816 236.843 304.677C237.438 310.086 238.027 315.495 238.613 320.905C240.027 320.642 241.506 320.521 242.746 320.362L243.028 320.325C246.108 319.9 249.218 319.653 252.314 319.381C258.342 318.849 264.401 318.507 270.445 318.216C276.635 317.917 282.828 317.665 289.018 317.389L295.209 317.112C296.241 317.066 297.273 317.021 298.305 316.978C299.779 316.915 301.253 316.856 302.727 316.795C303.454 316.765 304.21 316.666 304.938 316.704L305.146 316.676C305.241 316.664 305.325 316.654 305.403 316.645C305.601 316.495 305.814 316.369 306.04 316.275L306.177 316.221L306.465 304.639ZM234.9 287.241C235.451 292.11 235.995 296.98 236.532 301.851C238.222 301.658 239.932 301.551 241.546 301.405C244.8 301.114 248.069 300.858 251.333 300.708L257.856 300.404C262.205 300.203 266.553 300.009 270.904 299.85C282.814 299.415 294.723 298.916 306.625 298.308C306.709 295.005 306.796 291.701 306.884 288.398C306.313 289.01 305.487 289.413 304.403 289.411C291.907 289.377 279.402 289.449 266.908 289.244C260.654 289.141 254.407 288.989 248.16 288.668C245.104 288.511 242.03 288.191 238.997 287.77C237.703 287.591 236.288 287.463 234.9 287.241ZM232.9 269.891C233.488 274.879 234.064 279.868 234.631 284.858C236.183 284.581 237.786 284.433 239.234 284.236C242.344 283.813 245.474 283.475 248.607 283.298C254.703 282.953 260.803 282.779 266.908 282.65C279.401 282.384 291.907 282.386 304.403 282.287C305.577 282.278 306.448 282.743 307.02 283.437C307.107 280.322 307.199 277.207 307.293 274.092C306.086 273.965 304.889 273.784 303.782 273.707C300.379 273.469 296.974 273.252 293.568 273.056C286.461 272.648 279.346 272.3 272.234 271.99C265.12 271.68 258.003 271.378 250.887 271.114L247.774 271C242.825 270.816 237.792 270.583 232.9 269.891ZM230.663 251.107C231.274 256.159 231.876 261.211 232.477 266.264L232.66 267.828C238.612 266.67 244.884 266.33 250.887 266.075C258.004 265.772 265.11 265.616 272.234 265.638C279.351 265.659 286.457 265.828 293.568 266.122C297.121 266.269 300.674 266.439 304.225 266.632C305.202 266.685 306.347 266.656 307.525 266.673C307.551 265.879 307.572 265.085 307.6 264.292C307.708 261.076 307.814 257.86 307.924 254.644C305.522 255.879 302.399 256.377 299.985 256.903L299.71 256.964C295.724 257.86 291.655 258.44 287.586 258.795C279.597 259.493 271.524 259.232 263.543 258.557L262.145 258.437C255.135 257.829 247.869 257.058 241.074 255.322C237.838 254.495 234.492 253.338 231.591 251.661C231.29 251.487 230.978 251.302 230.663 251.107ZM298.15 191.079C298.22 190.806 298.628 190.744 298.763 190.999C299.707 192.793 300.058 194.947 300.713 196.87C301.418 198.937 302.076 201.02 302.854 203.062C304.48 207.328 306.397 211.428 308.684 215.381C310.948 219.294 304.608 222.088 302.942 217.803C301.222 213.382 299.808 208.81 298.953 204.138C298.535 201.859 298.163 199.548 298.042 197.232C297.938 195.242 297.659 193.02 298.15 191.079Z" fill="black"/>
<path fill-rule="evenodd" clip-rule="evenodd" d="M335.234 63.5414C319.552 22.1635 291.285 -8.132 243.63 10.8964C242.263 9.96294 240.479 9.71259 238.77 10.8056C212.81 27.1539 194.117 53.3642 186.015 82.9194C181.085 83.8596 176.294 85.4994 172.015 88.1884C162.715 94.0327 156.459 103.332 150.593 112.39C148.83 115.113 150.463 119.621 153.777 120.239C155.217 120.508 156.644 120.668 158.063 120.71C157.717 121.968 157.263 123.183 156.684 124.297C154.587 128.332 158.548 132.615 162.259 131.512C162.671 131.731 163.103 131.91 163.55 132.045C163.601 134.331 164.772 137.39 167.089 137.852C170.837 138.658 175.817 135.781 174.933 131.577C176.065 131.777 177.193 131.802 178.293 131.663C178.416 133.853 178.378 136.137 178.679 138.156C179.664 147.673 189.145 154.066 198.186 151.171C198.741 154.136 199.392 158.303 202.304 159.911C205.709 169.49 211.587 180.422 221.216 184.787C220.359 186.989 220.824 189.669 223.406 191.143C241.031 201.221 262.185 204.631 282.112 200.884C290.075 200.409 297.834 198.604 305.281 194.759C310.712 191.955 315.705 188.394 320.579 184.723C325.455 181.051 330.669 177.476 334.561 172.708C338.788 167.53 340.756 161.437 342.033 154.953C347.885 125.519 345.864 96.6185 335.234 68.5802C322.075 33.8732 348.388 98.2503 335.234 63.5414Z" fill="#694D3D"/>
<path fill-rule="evenodd" clip-rule="evenodd" d="M171.969 86.496C186.607 77.8363 205.274 80.0777 214.068 93.4917C215.586 95.8074 216.634 98.3549 217.375 101.304L217.494 101.794L217.614 102.31C217.997 104.015 218.248 105.619 218.589 108.347L218.967 111.442L219.075 112.286C219.441 115.087 219.762 116.857 220.263 118.661L220.362 119.011L220.941 121.009L218.757 121.818C214.574 123.333 213.698 123.469 211.284 122.203C209.399 121.215 208.415 119.884 207.105 117.188L206.916 116.793L206.498 115.914L206.271 115.45C205.418 113.742 204.735 111.92 203.769 111.258C202.458 110.359 198.326 110.002 195.452 110.356L195.302 110.375L195.178 110.401L194.965 110.449C190.132 111.595 185.727 115.508 182.821 119.643C180.482 122.972 179.138 127.166 178.973 131.525L178.963 131.815L178.906 134.04L174.221 133.94L174.267 133.074L174.197 133.228C172.721 136.349 169.012 138.427 165.91 136.361L165.799 136.286L165.687 136.205C163.067 134.271 162.752 130.357 164.902 127.979L165.001 127.872L165.098 127.774L165.078 127.765L165.056 127.757L165.042 127.756C164.31 127.891 163.666 128.267 162.796 129.069L162.572 129.279L162.123 129.767L161.658 130.265L161.458 130.471C161.33 130.6 161.213 130.714 161.103 130.814C160.954 130.95 160.816 131.064 160.667 131.168C160.528 131.264 160.385 131.348 160.212 131.424C159.785 131.61 159.329 131.698 158.745 131.554C157.944 131.357 157.493 130.871 157.22 130.299C157.114 130.077 157.053 129.872 157.01 129.657C156.965 129.431 156.943 129.201 156.931 128.936C156.924 128.762 156.921 128.572 156.922 128.365L156.928 128.041L156.939 127.689L156.951 127.408L157.004 126.365C157.193 122.942 158.09 119.58 159.626 116.406L159.782 116.09L159.84 115.975L159.679 116.191C158.632 117.575 157.621 118.535 156.358 119.168L156.185 119.253L156.015 119.33C154.263 120.102 152.499 119.802 151.434 118.372C150.697 117.382 150.479 116.079 150.63 114.709C150.923 112.05 151.972 109.616 154.024 106.064L154.312 105.57L155.439 103.653C159.781 96.3244 165.362 90.404 171.969 86.496Z" fill="#E8E1E1"/>
<path fill-rule="evenodd" clip-rule="evenodd" d="M259.422 2.83324C267.447 2.26503 275.619 3.62184 283.262 6.0489C295.451 9.91859 306.645 16.7478 315.842 25.6383C325.32 34.8007 332.331 46.0973 336.593 58.5741C341.733 73.6211 342.503 89.6873 343.95 105.395C344.68 113.33 345.885 121.145 347.137 129.004L347.335 130.246C348.558 137.903 349.246 145.647 347.557 153.292C344.747 165.998 336.327 176.784 326.331 184.754C305.797 201.126 273.831 211.107 249.923 196.042C246.225 193.711 249.73 187.75 253.34 190.179C255.882 191.889 258.574 193.388 261.461 194.423C273.523 198.746 286.771 197.206 298.693 193.185C310.441 189.222 321.714 182.525 330.383 173.589C339.489 164.204 344.535 152.61 343.806 139.418C343.371 131.57 341.588 123.866 340.599 116.081C339.722 109.186 339.196 102.253 338.591 95.3304L338.369 92.8403C337.084 78.7355 335.24 64.2437 328.841 51.4405C323.459 40.6692 315.578 31.0866 306.101 23.6861C296.18 15.9382 284.33 10.5194 271.897 8.4983C257.275 6.12177 243.279 10.4434 231.083 18.4886C220.265 25.6236 210.966 35.1583 203.835 45.9771C200.377 51.2228 197.431 56.8248 194.887 62.5699C192.49 67.9828 190.837 73.6559 188.909 79.2352C190.495 79.1878 192.108 79.249 193.746 79.4305C202.145 80.364 209.971 84.7299 214.953 91.6141C221.041 100.026 219.396 110.352 221.774 119.919C221.958 120.662 221.645 121.389 221.011 121.8C217.405 124.137 212.58 124.215 209.09 121.583C206.061 119.299 204.639 115.169 205.865 111.561C206.025 111.091 206.708 111.174 206.727 111.678C206.958 117.819 212.638 122.547 218.206 119.625C215.817 111.376 217.074 102.162 212.19 94.7108C203.544 81.5227 185.652 80.9778 173.085 88.4123C166.471 92.3243 161.236 98.2066 157.338 104.786L156.215 106.696C154.721 109.248 153.139 112.135 152.829 114.946C152.65 116.568 153.247 118.092 155.102 117.275C156.603 116.614 157.765 115.072 158.656 113.746C160.177 111.486 163.671 113.439 162.415 115.846L162.372 115.925C160.544 119.172 159.419 122.751 159.213 126.48L159.16 127.512C159.126 128.265 159.101 129.335 159.26 129.374C159.45 129.421 160.772 127.889 160.993 127.677C162.053 126.655 163.146 125.82 164.623 125.548C166.564 125.191 168.523 127.6 166.837 129.179L166.767 129.243C165.263 130.554 165.33 133.169 166.991 134.395C169.336 136.126 172.222 133.301 172.563 130.975L172.574 130.89C172.875 128.377 176.355 128.288 176.544 130.89C176.954 136.536 170.252 141.268 165.152 138.42C163.136 137.294 161.854 135.233 161.452 133.023C160.808 133.364 160.114 133.601 159.38 133.666C156.99 133.879 155.291 132.193 154.904 129.931C154.454 127.296 154.721 124.474 155.413 121.737C154.115 122.051 152.75 121.931 151.378 121.137C147.225 118.734 148.418 113.389 149.986 109.78C156.678 94.3773 170.544 80.4011 187.723 79.2915C187.817 76.5739 188.184 74.0046 188.785 71.2834C194.661 44.6663 213.696 20.0193 238.476 8.49964C245.098 5.42123 252.121 3.35048 259.422 2.83324ZM194.436 109.159L194.671 109.105C197.349 108.527 204.394 107.847 203.545 112.366C203.505 112.578 203.197 112.552 203.142 112.366C202.31 109.525 196.66 111.797 195.011 112.481C192.736 113.423 190.493 114.813 188.636 116.429C184.57 119.968 181.845 124.956 181.431 130.372C181.02 135.745 182.574 141.549 186.439 145.436C188.333 147.341 190.751 148.634 193.467 148.729C195.908 148.814 198.604 146.909 200.856 148.025C201.3 148.245 201.652 148.848 201.611 149.346C201.536 150.287 201.116 151.019 200.491 151.588C204.261 158.478 207.346 165.771 212.155 172.037C214.569 175.181 217.303 178.092 220.4 180.57C221.872 181.748 223.472 182.782 225.122 183.691C227.056 184.757 228.729 185.424 230.109 187.23C231.286 188.77 230.108 191.748 228.169 192.014C223.6 192.638 219.161 188.934 215.807 186.159C212.456 183.386 209.56 179.966 207.167 176.337C202.572 169.369 199.428 161.149 198.171 152.832C196.711 153.296 195.068 153.438 193.832 153.441C190.544 153.448 187.404 152.262 184.819 150.257C175.358 142.917 174.306 127.849 180.983 118.346C184.178 113.799 189.033 110.439 194.436 109.159ZM194.495 126.636C196.689 126.443 198.881 126.79 200.943 127.54L201.793 127.849C203.589 128.508 205.5 129.282 206.797 130.632C208.778 132.696 206.806 136.271 203.983 135.48C200.863 134.606 198.326 131.97 195.207 130.864C192.418 129.876 189.26 130.016 186.785 131.718C186.458 131.943 186.028 131.499 186.242 131.173C188.135 128.282 191.124 126.932 194.495 126.636Z" fill="black"/>
<path fill-rule="evenodd" clip-rule="evenodd" d="M303.043 159.778C303.729 158.586 305.306 157.481 306.75 157.65C313.217 158.409 313.206 166.257 310.709 170.838C308.495 174.901 303.912 177.285 299.326 176.937C294.507 176.571 290.402 173.736 288.595 169.225C287.4 166.24 286.848 160.731 290.027 158.726C290.086 158.689 290.183 158.698 290.23 158.752C291.754 160.527 291.814 163.191 293.148 165.166C294.389 167.004 296.317 168.521 298.575 168.755C300.262 168.93 301.968 168.322 302.628 166.806C302.985 165.986 302.944 165.541 302.81 164.977L302.688 164.487C302.266 162.769 302.076 161.462 303.043 159.778ZM304.772 125.362C308.145 127.414 313.285 132.198 309.656 137.286C305.385 141.771 299.235 136.628 296.205 134.302C293.395 132.5 290.238 137.136 292.845 139.241C314.743 155.467 323.629 125.898 306.478 122.949C304.59 122.624 303.888 124.727 304.772 125.362ZM269.153 111.291C271.223 108.182 275.949 108.64 277.089 112.329C277.707 114.327 276.854 116.123 276.898 118.119C276.935 119.805 276.825 121.683 276.308 123.316C275.131 127.039 271.785 129.669 267.827 129.56C263.882 129.451 260.408 126.952 258.755 123.432C257.097 119.899 257.448 116.243 258.659 112.65C258.717 112.478 258.943 112.394 259.079 112.539C260.51 114.061 261.557 115.668 262.641 117.372L263.752 119.119C264.601 120.434 265.835 122.114 267.42 122.009L267.657 121.985C268.098 121.947 268.03 122.035 268.37 121.434C268.527 121.156 268.499 120.639 268.575 120.311L268.601 120.2L268.587 120.14C268.553 119.981 268.52 119.682 268.493 119.162L268.487 119.048C268.372 116.617 267.686 113.493 269.153 111.291ZM321.634 113.36C321.263 109.384 326.848 108.501 328.705 111.443C329.673 112.978 329.955 114.905 330.169 116.731L330.27 117.598C330.489 119.473 330.576 121.424 329.763 123.173C328.482 125.928 325.696 127.385 322.691 127.154C319.821 126.933 317.202 125.268 315.822 122.74C314.592 120.484 313.368 116.08 314.863 113.727C314.953 113.584 315.133 113.566 315.257 113.676C316.669 114.931 316.9 117.22 317.739 118.855C318.605 120.541 319.919 122.184 321.91 122.44C323.815 122.685 324.542 121.644 324.056 119.827C323.43 117.481 321.87 115.885 321.634 113.36ZM270.661 87.652L271.575 87.3018C274.704 86.1187 279.001 84.751 281.545 87.2979C283.115 88.8684 283.414 91.1819 282.293 93.0984C280.936 95.42 278.501 95.4772 276.15 95.8192C273.475 96.2081 270.756 96.9476 268.266 98.0017C265.461 99.1895 262.858 100.67 260.308 102.324C257.884 103.895 255.469 106.464 252.568 106.948C252.45 106.967 252.315 106.916 252.284 106.786C251.626 103.948 253.457 101.154 255.09 98.9392C257.067 96.2578 259.463 94.0569 262.14 92.0836C264.724 90.1787 267.677 88.8022 270.661 87.652ZM327.509 97.7449L327.788 97.696C329.686 97.3798 331.406 97.4526 332.836 98.9569C333.927 100.104 334.348 101.592 333.828 103.109C333.348 104.509 332.274 105.931 330.715 106.224C325.454 107.215 319.626 107.051 314.338 106.301C311.919 105.958 309.478 105.538 307.121 104.875L306.037 104.56C304.07 103.998 301.818 103.41 300.389 101.962C299.875 101.442 300.171 100.697 300.786 100.456C303.279 99.479 306.697 99.999 309.356 99.9225C312.448 99.834 315.546 99.602 318.624 99.2823C321.632 98.9694 324.543 98.2894 327.509 97.7449Z" fill="black"/>
<path fill-rule="evenodd" clip-rule="evenodd" d="M356.641 91.3247C356.273 91.2635 355.905 91.2058 355.537 91.1517C355.25 90.9885 354.913 90.8629 354.52 90.7873C353.625 90.5598 352.735 90.4065 351.847 90.3238C339.103 87.4532 309.619 91.529 308.402 102.414C304.343 103.77 300.832 102.556 296.128 102.676C292.547 87.6978 230.645 89.8119 227.668 98.8424C227.657 98.8392 227.645 98.8365 227.634 98.833C224.773 97.9469 220.556 98.1606 217.282 98.0202C210.291 97.8736 203.292 98.4972 196.452 99.973C183.643 102.01 166.163 104.395 175.071 120.403C175.072 120.406 175.074 120.409 175.076 120.412L175.077 120.41C176.613 121.985 179.218 120.717 179.315 118.585C176.32 111.001 183.085 110.091 188.289 107.911C201.24 103.255 214.425 102.609 227.819 104.05C228.827 105.237 230.356 106.272 231.972 106.814C240.927 108.302 236.208 114.951 241.869 115.918C240.829 139.094 268.943 151.744 285.233 136.509C291.737 130.145 293.288 120.717 294.796 112.219C295.593 112.04 296.1 111.604 296.396 111.026C298.314 109.11 299.518 107.34 303.31 106.814C307.102 106.288 310.021 107.344 310.416 107.667C310.516 107.868 310.622 108.069 310.747 108.27C310.92 108.57 311.156 108.809 311.424 108.998C307.679 132.076 325.581 146.672 343.653 134.702C351.506 127.309 353.165 115.99 353.493 105.888C354.557 105.245 355.231 103.999 354.863 102.433C354.355 100.273 355.546 98.4038 357.443 97.465C359.907 96.2459 359.471 91.7937 356.641 91.3247ZM278.987 102.274C276.743 101.78 275.785 105.241 278.036 105.736C279.629 106.087 280.98 106.891 281.892 108.254L281.988 108.402C283.213 110.352 286.309 108.552 285.076 106.589C283.689 104.381 281.533 102.834 278.987 102.274ZM344.687 100.127C343.896 99.5698 342.699 99.9837 342.24 100.772C341.735 101.639 342.066 102.605 342.807 103.172L342.882 103.228C343.562 103.707 344.223 104.566 344.306 105.446L344.314 105.556C344.403 107.86 347.979 107.871 347.89 105.556C347.803 103.292 346.493 101.4 344.687 100.127Z" fill="black"/>
</svg>
