<svg width="346" height="458" viewBox="0 0 346 458" fill="none" xmlns="http://www.w3.org/2000/svg">
<path d="M230.957 257.846C230.719 254.212 231.421 250.248 233.772 247.677C236.109 245.092 240.096 243.9 244.215 243.412C248.335 242.924 252.568 243.178 255.091 245.306C257.598 247.445 258.373 251.494 259.275 255.285C260.161 259.087 261.184 262.645 260.336 265.89C259.474 269.119 256.725 272.047 253.268 273.904C249.805 275.79 245.634 276.605 242.226 275.471C238.805 274.322 236.147 271.226 234.25 268.024C232.341 264.806 231.195 261.479 230.957 257.846Z" fill="#9093D1"/>
<path d="M66.756 309.303C66.2803 302.036 67.6854 294.107 72.3852 288.967C77.0613 283.795 85.032 281.412 93.2712 280.436C101.511 279.46 109.978 279.969 115.023 284.224C120.037 288.501 121.587 296.601 123.391 304.182C125.162 311.786 127.21 318.902 125.513 325.393C123.791 331.851 118.292 337.706 111.376 341.422C104.452 345.192 96.1107 346.821 89.2933 344.556C82.4521 342.258 77.1343 336.066 73.3412 329.661C69.5242 323.223 67.232 316.57 66.756 309.303Z" fill="#F7859C"/>
<path d="M160.999 399.555C160.522 392.288 161.928 384.359 166.628 379.219C171.304 374.047 179.275 371.664 187.515 370.688C195.753 369.712 204.221 370.221 209.265 374.474C214.279 378.752 215.83 386.852 217.634 394.433C219.404 402.038 221.454 409.154 219.756 415.645C218.034 422.102 212.534 427.958 205.618 431.673C198.694 435.442 190.354 437.072 183.536 434.807C176.694 432.51 171.376 426.318 167.584 419.911C163.767 413.473 161.474 406.822 160.999 399.555Z" fill="#F7859C"/>
<path d="M114.879 199.441C114.153 188.092 116.37 175.705 123.731 167.665C131.055 159.577 143.523 155.835 156.407 154.291C169.29 152.747 182.526 153.521 190.404 160.154C198.23 166.822 200.634 179.47 203.435 191.305C206.184 203.177 209.368 214.287 206.697 224.427C203.989 234.518 195.377 243.677 184.555 249.496C173.72 255.4 160.676 257.966 150.023 254.444C139.333 250.873 131.035 241.215 125.122 231.219C119.171 221.173 115.604 210.79 114.879 199.441Z" fill="#9FD8E5"/>
<path d="M156.959 309.304C156.482 302.037 157.888 294.108 162.588 288.968C167.263 283.796 175.235 281.413 183.474 280.437C191.712 279.461 200.181 279.97 205.225 284.223C210.239 288.502 211.79 296.602 213.594 304.183C215.364 311.787 217.413 318.903 215.716 325.394C213.994 331.851 208.494 337.707 201.578 341.422C194.654 345.191 186.314 346.821 179.496 344.556C172.654 342.259 167.336 336.067 163.544 329.66C159.727 323.224 157.434 316.571 156.959 309.304Z" fill="#FFDBB4"/>
<path fill-rule="evenodd" clip-rule="evenodd" d="M60.9244 186.964C62.1606 186.609 63.7051 186.517 65.0576 186.452C69.838 186.171 74.7124 188.452 79.3996 189.48C81.4514 189.988 83.624 190.586 85.8196 191.031C87.7689 191.296 89.7841 191.495 91.8102 191.621C93.4478 191.67 95.3535 191.545 95.9126 193.268C99.2044 193.907 102.118 194.172 105.256 193.629C104.962 192.629 104.795 191.583 105.099 190.505C104.945 190.249 104.737 189.904 104.625 189.671H105.002C110.51 187.464 116.466 185.957 122.002 183.671C129.229 181.064 139.872 176.027 148.221 172.588C147.655 169.485 147.446 166.332 147.686 163.268L147.35 162.996C147.24 162.394 147.069 161.673 146.758 161.127C146.364 160.081 146.355 158.653 146.199 157.471C145.872 155.159 145.655 151.676 146.248 148.931C146.508 145.207 149.015 142.337 151.719 140.034C155.039 136.748 158.363 133.541 161.605 130.128C179.542 111.825 180.961 88.7715 209.042 81.7652L209.055 81.6564C209.277 81.4093 209.367 81.2133 209.619 81.6038C210.546 81.2482 211.702 81.2779 212.479 80.6767C213.857 79.4182 214.835 77.9654 215.475 76.2413C215.967 72.9822 215.619 67.9591 218.471 65.8737C221.64 63.974 238.474 62.6215 239.926 66.7749C240.827 67.6216 241.237 68.6974 241.518 70.0144C242.456 71.7903 243.048 73.7595 243.993 75.5626C246.002 79.6069 247.304 78.7106 250.851 79.6348C251.236 78.776 252.404 78.9491 253.256 79.0738C263.57 80.5246 276.145 84.4839 280.561 94.1873L280.185 94.1392C287.808 108.474 282.865 126.704 281.501 141.895C280.398 155.398 281.66 168.965 284.657 181.56C288.335 194.922 288.546 209.868 281.248 221.962C280.506 223.347 279.603 225.303 278.004 224.435C277.129 225.098 276.145 225.555 274.786 225.954C274.411 226.226 274.023 226.683 273.631 226.878C273.613 226.905 272.981 226.54 272.948 226.53C271.755 228.235 206.237 233.931 199.438 234.815C193.448 235.538 185.533 237.384 180.651 233.059C176.617 231.906 172.396 228.902 169.172 225.92C167.216 254.318 166.134 312.475 164.388 312.88C163.624 313.14 162.593 313.45 161.729 313.698C161.723 315.738 161.572 318.056 161.732 320.062C162 322.327 162.679 325.002 162.986 327.383C164.307 327.295 164.695 328.621 164.849 329.521C165.989 336.961 165.955 342.959 165.873 351.136C152.469 359.039 136.759 363.385 121.676 368.493C120.231 369.579 117.101 368.404 115.433 368.11C109.641 366.969 103.061 363.593 104.522 357.403C105.593 352.743 110.087 350.061 113.87 347.319C118.009 344.318 122.372 341.319 126.178 337.745C129.231 334.866 131.512 332.632 134.058 329.383C135.188 327.872 136.392 325.389 137.912 324.276C136.307 322.37 139.55 324.156 140.778 324.266C141.5 320.863 142.395 317.595 143.467 314.331L142.425 314.378C139.002 311.178 137.083 295.818 136.845 291.261C135.129 261.555 135.17 227.317 142.052 202.299C136.824 205.522 131.091 208.213 125.892 211.4C122.613 213.323 119.287 215.992 115.612 216.924C115.372 217.612 114.496 217.88 114.018 217.206C113.36 217.287 112.512 217.014 112.44 216.714C111.767 215.337 110.793 213.853 110.91 212.357C110.91 212.357 111.812 210.261 111.812 210.261C109.79 211.084 107.592 212.815 105.433 212.974C101.073 227.547 92.4819 219.383 84.2152 213.712C79.2263 210.222 73.769 206.369 68.5186 202.649C64.0641 199.102 55.3674 195.736 59.6306 188.711" fill="#FFDBB4"/>
<path d="M252.077 79.936C251.689 80.0167 251.436 80.4257 251.226 80.8487L251.184 80.9363L251.095 81.1221C249.016 87.4119 242.418 90.9211 236.47 93.2559L236.106 93.3974L235.738 93.5388C226.02 97.8576 209.894 95.844 208.389 83.2246C185.618 89.2819 179.449 114.926 164.949 130.543C161.551 134.359 157.98 138.014 154.502 141.755C153.405 142.832 152.402 144.451 150.869 144.832C149.949 146.277 149.29 147.913 149.177 149.622C154.101 147.419 159.659 148.466 164.871 150.134C166.392 150.621 182.032 158.359 191.141 156.52C191.606 156.426 190.727 174.863 191.636 175.111C199.517 177.261 223.571 179.401 228.392 178.125C244.841 173.771 269.813 234.012 278.99 223.145C281.301 220.408 287.243 209.455 287.158 197.471C287.064 184.414 280.823 169.865 280.68 156.52C280.463 136.381 283.206 124.433 283.323 122.847C285.321 108.091 282.925 88.6177 266.308 83.8154C261.812 81.7532 256.968 80.4186 252.077 79.936ZM149.991 152.553C148.691 153.481 148.416 154.916 148.567 156.52C148.626 157.143 148.704 157.766 148.783 158.388C150.417 156.689 152.841 156.086 155.169 155.901C155.08 155.741 154.98 155.523 154.986 155.319C153.217 154.59 151.548 153.666 149.991 152.553Z" fill="#E86BBB"/>
<path fill-rule="evenodd" clip-rule="evenodd" d="M137.721 324.819L137.501 325.128C129.479 336.394 120.604 344.875 111.186 349.218L110.869 349.363L110.84 349.38C108.154 350.95 105.926 353.44 105.051 355.996C104.028 358.988 104.894 361.809 107.8 363.872L107.889 363.934L107.903 363.944C111.561 366.337 115.878 367.825 120.119 368.122L120.276 368.133L120.481 368.146L120.657 368.037C121.781 367.342 122.863 366.943 125.174 366.279L126.148 366L126.55 365.883L126.75 365.823C127.593 365.57 128.159 365.377 128.751 365.137L128.939 365.059L129.568 364.847C140.878 361.013 152.05 356.619 163.045 351.689L163.691 351.398L164.682 350.95L164.705 350.559C165.208 341.991 165.187 335.152 164.471 328.709L164.447 328.499L163.158 328.621C163.346 331.133 160.835 333.259 158.463 332.457L158.391 332.432L158.358 332.421L158.259 332.39C157.591 332.175 157.035 331.862 156.047 331.189L155.315 330.687L155.129 330.562L154.994 330.473C154.929 330.43 154.866 330.39 154.801 330.349L154.711 330.292C150.649 327.747 146.277 326.032 141.838 325.303C141.471 325.236 141.093 325.178 140.68 325.126L140.222 325.072L139.752 325.023L138.293 324.88L137.721 324.819ZM62.7503 186.648L62.4596 186.96C61.4974 187.991 60.7676 189.001 60.3059 190.043C59.7299 191.344 59.6081 192.631 60.0374 193.877L60.0718 193.973L60.0798 193.991C60.8021 195.651 62.4953 197.118 65.7365 199.258L66.2289 199.58C66.7483 199.917 68.1496 200.823 68.5731 201.104L68.7596 201.228C69.5217 201.738 70.095 202.151 70.5533 202.526L70.6289 202.588L71.7123 203.342L73.9417 204.896L75.5957 206.05L76.7339 206.845C81.0836 209.885 85.2824 212.836 89.3842 215.736L89.5926 215.878L89.7566 215.991L89.992 216.156L90.3243 216.391L91.4279 217.182L91.6484 217.338L91.866 217.491L92.086 217.644L92.3088 217.797L92.5278 217.945C94.771 219.449 96.424 220.193 98.1847 220.296C99.4379 220.369 100.619 220.06 101.718 219.329L101.796 219.276L101.83 219.253L101.949 219.146L102.047 219.056L102.144 218.965L102.239 218.874C102.744 218.387 103.202 217.858 103.923 216.966L104.529 216.21L104.771 215.911L104.95 215.693L105.078 215.54C105.472 215.069 105.771 214.742 106.11 214.412L106.222 214.304L106.987 213.574L105.99 213.223C101.967 211.807 98.6782 207.305 97.3268 202.152L97.279 201.967L97.269 201.938C97.0248 201.25 96.9367 200.546 96.9128 199.395L96.9011 198.517L96.8955 198.228L96.8903 198.033L96.8839 197.842C96.8324 196.464 96.6805 195.68 96.2454 194.811L96.1902 194.703L96.1719 194.668L96.1496 194.636C96.1224 194.596 96.1194 194.59 96.1306 194.57L96.3597 194.181L96.0881 193.833C95.9678 193.679 95.8356 193.527 95.6813 193.364L95.6138 193.294L95.4632 193.138L95.2492 193.104C88.5192 192.039 81.6113 190.468 73.3802 188.223L72.5517 187.996L72.1392 187.885L71.8606 187.811L71.5849 187.738C68.8627 187.03 67.2 186.757 65.2987 186.781L65.1373 186.784C64.9612 186.787 64.8117 186.797 64.557 186.82L64.2938 186.844L64.1728 186.854L64.0564 186.863C63.6286 186.892 63.401 186.876 63.1783 186.801L63.1513 186.792L62.7503 186.648Z" fill="white"/>
<path fill-rule="evenodd" clip-rule="evenodd" d="M248.317 78.7445C244.106 77.7201 243.387 67.6145 240.844 69.0536C239.374 70.3332 241.778 72.7473 242.204 74.1916L242.391 74.5584C243.253 76.2406 244.229 77.9172 245.929 78.8871C247.022 80.0389 250.288 78.908 249.808 80.7424C248.131 86.2709 239.23 90.099 233.983 91.8204C225.829 94.8866 212.638 93.8491 210.723 83.5711C215.195 82.7514 218.502 74.6726 215.745 71.309C215.651 74.5764 214.76 77.9483 212.198 80.1619L212.056 80.2918C211.606 80.7036 211.022 81.1953 210.44 81.1038C209.872 80.3127 208.771 80.7627 208.447 81.5976C182.981 86.0045 177.308 113.5 161.271 129.684C158.068 133.06 154.719 136.292 151.413 139.566C148.037 142.248 145.648 145.986 145.482 150.376C145.18 152.817 145.33 155.26 145.652 157.706L145.675 157.927C145.824 159.442 145.913 161.07 146.634 162.415C146.758 162.871 146.708 163.447 147.102 163.769C146.93 166.559 147.093 169.399 147.565 172.18L146.336 172.729C132.816 178.757 119.14 184.439 105.042 188.958C103.838 188.739 103.936 190.141 104.519 190.779C104.365 191.529 104.349 192.308 104.529 193.05C101.948 193.421 99.3256 193.112 96.7774 192.641C95.9713 190.864 93.8295 190.959 92.1734 190.909C90.116 190.78 88.0623 190.579 86.0198 190.293C80.9872 189.168 76.0452 187.687 71.061 186.386C67.7258 185.446 64.129 185.491 60.7832 186.356C60.2148 186.993 59.6899 187.674 59.2469 188.397C56.1884 193.145 59.2021 197.495 63.4714 199.988C70.3208 204.849 77.1721 209.703 84.0521 214.518L84.552 214.875C92.7376 220.74 101.946 228.164 106.318 213.889C107.787 213.717 109.075 212.729 110.444 212.147C110.076 213.86 111.175 215.59 111.933 217.059C112.26 217.895 113.152 218.171 113.976 218.163C114.682 218.856 116.006 218.583 116.467 217.762C120.209 216.689 123.301 214.186 126.613 212.241C131.322 209.377 136.263 206.936 141.04 204.194C133.104 237.087 135.045 271.349 137.157 304.831L137.172 305.133C137.433 310.021 138.553 312.334 142.603 315.33C141.898 317.485 141.267 319.648 140.785 321.864C140.615 322.378 139.833 321.894 139.827 322.6C138.388 322.263 135.464 322.624 136.484 324.616C133.595 327.043 131.639 330.331 129.107 333.098C124.647 338.449 118.817 342.432 113.1 346.357C99.9594 353.06 99.2063 364.675 114.581 368.643L114.735 368.68C116.852 369.19 119.402 370.356 121.455 369.374C124.525 368.782 127.572 367.584 130.576 366.672C142.672 362.665 154.502 357.973 165.965 352.582C166.38 352.386 166.615 351.938 166.626 351.49C166.498 347.791 167.502 327.518 163.67 327.081C162.814 322.939 162.68 318.664 162.835 314.437C164.078 314.045 165.335 313.668 166.623 313.423C167.873 313.029 169.828 312.94 170.665 311.927C170.966 311.818 171.186 311.548 171.141 311.123C170.464 304.77 169.951 298.401 169.577 292.023C168.294 270.634 168.73 249.177 170.19 227.811C173.2 230.417 176.63 232.698 180.448 233.912C182.555 236.025 185.935 236.479 188.812 236.735C192.511 236.964 196.146 236.224 199.797 235.764C205.996 234.983 212.153 235.675 218.308 236.441L220.411 236.703C235.479 238.358 251.763 238.7 265.807 232.253C268.451 232.488 271.734 229.628 273.383 227.716C274.112 228.166 274.827 227.287 275.408 226.824C276.366 226.533 277.452 226.114 278.321 225.504C280.527 226.226 281.716 223.36 282.554 221.802C295.85 199.01 281.043 176.323 282.157 152.155C281.482 133.206 290.116 113.466 281.772 95.2926C280.083 87.6022 270.21 82.2873 262.779 80.3328C260.384 79.937 251.318 76.6558 250.32 79.415C249.847 78.7939 249.041 78.7474 248.317 78.7445ZM138.029 325.504C139.274 325.638 140.49 325.715 141.721 325.941C146.216 326.679 150.504 328.421 154.367 330.842C155.618 331.623 156.735 332.607 158.17 333.042C161.12 334.114 164.02 331.452 163.804 328.573C164.626 335.807 164.485 343.25 164.058 350.521C152.519 355.746 140.721 360.406 128.709 364.453C126.004 365.588 122.801 365.951 120.316 367.486C116.08 367.218 111.816 365.729 108.258 363.401C102.356 359.302 106.274 352.8 111.167 349.94C121.937 345.075 131.105 335.229 138.029 325.504ZM161.626 314.806C161.851 316.95 160.223 320.291 160.453 324.565C160.63 325.899 161.045 327.298 160.901 328.637C160.238 333.607 154.862 327.291 152.641 326.599C149.487 324.863 146.06 323.681 142.537 323.034C142.559 321.888 143.317 321.431 143.416 320.298C143.559 318.63 143.552 317.027 143.627 315.342C148.208 317.427 156.766 315.953 161.626 314.806ZM136.942 325.18C137.022 325.233 137.106 325.279 137.193 325.319C136.556 326.091 136.005 326.947 135.25 327.611L135.571 327.112C136.001 326.445 136.441 325.781 136.942 325.18ZM279.226 147.366C279.457 148.305 279.877 149.188 280.507 149.939C277.255 176.334 293.987 198.338 278.603 222.88C278.409 222.971 278.231 223.083 278.061 223.224C277.97 223.164 277.88 223.101 277.791 223.037C270.58 210.265 260.316 199.248 252.138 187.026C250.568 183.958 247.984 180.87 246.994 177.325C263.43 170.829 269.995 161.351 279.226 147.366ZM62.933 187.402C63.6299 187.652 64.4053 187.446 65.149 187.432C67.7892 187.376 70.3695 188.066 72.8948 188.763C80.2396 190.773 87.6231 192.554 95.148 193.744C95.3001 193.902 95.4454 194.063 95.5775 194.232C95.4471 194.453 95.4271 194.729 95.6163 195.004C96.7515 197.175 95.8338 199.832 96.6585 202.156C97.8534 206.86 101.032 212.165 105.775 213.835C104.193 215.343 103.059 217.285 101.43 218.742C97.4251 221.489 93.0146 217.394 89.7451 215.198C83.5204 210.796 77.2793 206.425 71.0211 202.072C68.2174 199.746 62.0152 196.814 60.6736 193.733C59.8141 191.37 61.3785 189.068 62.933 187.402ZM105.832 193.4C108.511 198.87 110.058 204.685 111.605 210.558C109.996 211.001 108.513 211.695 106.931 212.162C104.703 212.664 101.558 208.354 100.44 206.643C99.2888 204.729 98.4824 202.627 98.1084 200.424C97.7928 198.267 98.129 196.027 97.1916 194.029C100.094 194.325 103.039 194.388 105.832 193.4ZM265.122 182.114C262.606 181.408 268.33 187.106 268.659 187.714C272.381 192.113 275.791 196.758 279.175 201.418L280.201 202.833C280.299 202.976 280.978 203.981 280.487 203.853C280.442 203.842 280.421 203.901 280.457 203.925C283.586 204.479 266.631 182.501 265.122 182.114ZM203.782 179.424C203.578 178.81 204.544 178.548 204.748 179.158L205.389 181.092C207.81 188.397 210.215 195.713 213.108 202.848C213.35 203.446 212.383 203.707 212.142 203.115C208.996 195.351 206.425 187.372 203.782 179.424ZM175.646 176.866C176.528 181.058 178.758 184.836 180.109 188.843C177.571 188.283 175.616 185.915 174.136 183.878L174.092 183.811C173.394 182.735 172.582 181.055 170.997 181.814C168.591 183.213 170.315 188.176 170.36 190.528C170.665 193.752 171.712 196.768 172.426 199.9C170.591 198.645 170.064 196.171 169.17 194.243L165.729 185.98C163.2 182.51 164.374 192.9 164.505 193.88C164.711 196.034 165.617 198.201 165.261 200.37C163.835 198.833 162.936 196.902 162.181 194.943C161.134 192.218 160.178 189.458 159.181 186.715C158.837 185.836 157.53 186.144 157.72 187.112C157.784 190.225 157.835 193.338 157.885 196.451L157.922 198.786C157.929 199.229 158.147 200.522 157.384 200.164C153.372 195.95 152.344 187.523 152.866 181.861C160.751 182.051 168.796 181.027 175.646 176.866ZM105.479 192.589C105.511 192.692 105.548 192.795 105.585 192.898C105.563 192.902 105.538 192.907 105.516 192.913C105.501 192.804 105.488 192.697 105.479 192.589ZM280.48 192.589C281.355 191.942 266.654 173.048 267.606 178.502C271.708 183.36 276.49 187.617 280.48 192.589ZM150.65 150.836C164.398 147.603 176.505 159.681 190.312 157.856C190.152 162.182 189.93 166.537 190.018 170.865C171.682 172.379 173.769 180.191 152.662 179.404C149.934 177.576 148.814 166.368 149.045 162.984C148.868 158.984 152.307 157.188 155.733 156.487C156.97 157.235 159.191 155.003 157.353 154.217C154.934 153.489 152.671 152.344 150.65 150.836ZM252.076 79.9358C256.968 80.4184 261.812 81.753 266.307 83.8151C282.925 88.6175 285.321 108.09 283.323 122.847C282.495 134.069 279.298 145.044 272.577 154.169C254.683 181.487 225.046 177.161 196.974 173.548C195.962 172.843 194.247 173.344 193.272 172.413C193.374 172.377 193.466 172.329 193.544 172.269C193.076 171.903 192.713 171.261 192.605 170.578L192.403 170.598C192.205 166.362 192.363 162.208 192.299 158.005C201.523 155.472 211.416 154.178 220.764 151.656C221.827 152.398 223.052 151.544 224.09 151.141C226.781 149.995 229.496 148.906 232.23 147.87L232.915 147.612C234.697 146.943 236.479 146.257 238.245 145.542L238.906 145.273C239.918 144.859 242.472 143.326 243.576 144.283L243.487 144.475C242.832 145.904 240.578 151.193 243.349 150.147C245.6 148.565 246.766 137.534 248.995 137.437C249.762 139.491 250.311 141.622 250.436 143.817C250.481 144.311 251.13 144.728 251.52 144.266C254.163 140.781 250.17 136.985 250.064 133.307C249.812 129.029 251.702 125.027 252.644 120.933L252.702 120.651C253.254 117.995 254.113 114.775 253.885 112.393L253.337 114.46C252.787 116.529 252.223 118.599 251.576 120.639C249.972 125.734 247.074 130.983 248.684 136.435C245.454 136.543 244.908 141.647 243.695 143.978C241.732 141.428 227.918 147.543 224.765 148.524L224.157 147.833C214.285 136.626 207.158 129.042 191.857 137.907C194.5 129.37 194.755 120.303 195.206 111.438C195.052 109.752 196.025 105.303 194.652 104.383C194.414 104.417 194.182 104.489 193.964 104.585L193.964 105.459C193.957 107.152 193.878 109.959 193.169 110.596L192.844 113.948C191.992 122.663 191.026 131.371 188.426 139.769C182.186 143.262 176.492 147.635 171.136 152.353L170.526 152.13C163.907 149.704 155.944 146.595 149.177 149.622C149.29 147.913 149.949 146.277 150.869 144.831C152.402 144.451 153.405 142.832 154.502 141.755C157.98 138.014 161.551 134.359 164.949 130.543C179.449 114.926 185.618 89.2817 208.389 83.2243C209.894 95.8437 226.02 97.8574 235.737 93.5386L236.106 93.3972C242.147 91.063 248.974 87.54 251.095 81.1219L251.183 80.9361C251.402 80.4834 251.662 80.022 252.076 79.9358ZM248.492 151.749C248.475 151.73 248.44 151.756 248.456 151.777C251.287 155.334 253.591 160.186 250.777 164.435C250.257 165.391 251.472 166.31 252.25 165.581C256.156 161.141 251.823 155.123 248.492 151.749ZM149.991 152.553C151.548 153.665 153.217 154.59 154.986 155.319C154.98 155.523 155.08 155.741 155.169 155.901C152.841 156.086 150.417 156.688 148.783 158.388C148.704 157.766 148.626 157.143 148.567 156.519C148.416 154.916 148.69 153.48 149.991 152.553ZM257.047 136.829L257.029 136.743C257.016 136.646 256.869 136.639 256.873 136.743C256.927 138.015 257.851 138.919 258.634 139.825C259.796 141.168 260.957 142.511 262.119 143.853C264.062 146.193 266.924 148.546 266.28 151.936C266.268 153.14 267.775 153.398 268.387 152.513C270.819 147.869 263.163 143.918 260.583 140.923C259.371 139.626 257.461 138.672 257.047 136.829ZM220.597 150.77C220.56 150.827 220.534 150.89 220.521 150.954C220.113 150.998 219.707 151.044 219.301 151.094L220.597 150.77ZM281.489 139.91C281.417 140.395 281.349 140.881 281.284 141.368L281.219 141.855L281.209 141.812C281.176 141.686 281.113 141.576 281.032 141.488L281.004 141.46C281.172 140.946 281.334 140.429 281.489 139.91ZM169.723 134.887C168.748 134.783 173.168 137.965 173.412 138.359C173.768 138.669 174.185 138.118 173.805 137.849C172.431 136.879 171.078 135.883 169.723 134.887ZM178.323 125.527C177.644 125.249 177.183 126.38 177.827 126.696C180.172 127.844 182.651 128.657 184.812 130.168C184.907 130.234 185.026 130.08 184.936 130.009L184.676 129.803C182.686 128.221 180.698 126.501 178.323 125.527ZM280.68 111.219C280.024 114.309 276.478 115.324 273.726 116.147L272.866 116.475C270.436 117.407 267.918 118.454 266.17 120.422C265.485 122.641 270.374 118.775 271.057 118.579C274.396 116.506 280.43 116.154 280.68 111.219ZM208.289 82.3671C208.27 82.5243 208.261 82.6847 208.256 82.8452C208.051 82.8452 207.846 82.8468 207.641 82.8534C207.88 82.7128 208.1 82.5524 208.289 82.3671Z" fill="black"/>
<path fill-rule="evenodd" clip-rule="evenodd" d="M193.877 38.6119C194.489 28.5295 197.751 17.0987 207.351 12.1484C228.515 3.62925 256.341 25.083 257.815 46.9997C258.328 54.5019 254.175 62.6997 246.586 64.7855C244.899 67.0277 242.347 68.397 239.828 69.5855C209.83 85.196 190.452 72.5063 193.877 38.6119Z" fill="#FFDBB4"/>
<path fill-rule="evenodd" clip-rule="evenodd" d="M187.043 32.34C188.103 29.3867 189.223 26.4561 190.401 23.5481C191.548 20.718 192.585 17.8267 194.01 15.1307C202.52 -0.971397 217.995 -0.971398 225.995 1.13255C230.143 -0.660183 237.914 -0.154501 242.233 1.46321C249.226 4.08212 257.751 14.3843 260.665 19.013C267.1 29.2327 271.116 42.8349 266.842 54.6442C266.283 56.1876 265.571 57.6171 264.768 58.9947C265.274 59.6817 265.855 60.3323 266.5 60.9716C268.414 62.8716 270.329 64.7091 271.983 66.8521C273.627 68.9818 274.99 71.2466 276.004 73.7436C277.917 78.4526 278.009 83.7848 275.48 88.2781C273.28 92.1878 269.383 95.0991 264.991 95.3767C264.766 95.4082 264.54 95.437 264.314 95.4599C263.732 96.4211 263.022 97.3061 262.213 98.0777C259.732 100.444 253.819 101.658 250.446 101.736C250.273 101.875 250.099 102.015 249.924 102.153C247.86 103.782 245.695 105.425 243.326 106.584C241.721 107.37 239.617 108.027 237.942 107.46C237.183 107.968 235.937 107.861 235.184 107.445C233.946 106.761 232.939 105.529 232.327 104.268C230.841 101.206 231.199 97.8556 231.58 94.5846C232 90.9716 232.404 87.357 232.815 83.744C233.136 80.9187 233.472 78.0464 234.329 75.3249C234.772 73.9147 235.352 72.5597 236.102 71.2856C236.082 71.1786 236.086 71.0717 236.116 70.9712C236.362 70.1704 236.869 69.7506 237.471 69.206C237.548 69.1363 237.626 69.065 237.702 68.992C238.002 68.6484 238.324 68.3291 238.668 68.0584C238.801 67.9238 238.932 67.7877 239.062 67.6515C240.15 66.5088 241.178 65.3077 242.091 64.0207C242.977 62.7726 243.777 61.4694 244.538 60.1418C245.312 58.7916 245.824 57.302 246.597 55.9615C246.663 55.8464 246.831 55.8237 246.925 55.9194C247.164 56.1674 247.317 56.4429 247.288 56.7331L247.408 56.7509C247.453 56.3133 247.855 55.9567 248.402 56.0523C249.219 56.1949 249.892 56.2484 250.6 55.9761C250.475 55.1478 250.36 54.3179 250.247 53.4864C250.04 51.9562 249.848 50.4212 249.683 48.8862C249.284 48.9819 248.888 49.1196 248.5 49.2947C247.948 49.5427 247.426 49.8766 246.98 50.2867C246.54 50.6919 246.236 51.2382 245.7 51.5202C245.082 51.8428 244.337 51.3095 244.518 50.6093C244.885 49.1942 246.962 48.3838 248.247 48.1163C248.688 48.0239 249.139 47.985 249.59 47.9947C249.488 47.0092 249.397 46.0237 249.323 45.0366C249.287 44.5697 249.255 44.1029 249.224 43.6345C248.226 43.3314 247.156 43.2406 246.117 43.3832C245.774 43.6572 245.431 43.9279 245.1 44.2018C244.048 45.0739 243.001 45.9508 241.967 46.8439C241.873 46.9233 241.781 47.0027 241.687 47.0838C241.073 47.6138 240.307 47.0886 240.41 46.3382C241.254 40.1884 237.498 35.2965 233.101 31.5068C228.233 27.3103 219.384 26.8216 213.595 19.5526C210.929 20.0968 204.976 21.7133 202.52 25.6391C199.081 31.1405 199.53 36.0697 199.268 42.3102C199.006 48.5556 198.341 55.07 199.755 61.2279C201.059 66.9059 204.59 71.7573 210.068 73.9877C210.204 74.0428 210.342 74.0963 210.479 74.1482C213.312 75.2196 216.403 75.5227 219.384 74.9586C222.682 74.3329 225.436 72.819 228.18 70.9566C228.338 70.8512 228.569 71.0684 228.45 71.2273C224.833 76.0349 217.729 77.6412 212.093 76.372C211.83 76.3121 211.568 76.2472 211.308 76.1759C212.569 79.8116 212.315 83.8023 210.673 87.3424C209.685 89.4723 208.179 91.3152 206.345 92.7692C204.323 94.3707 201.815 95.6641 200.412 97.9123C199.128 99.9725 199.509 102.287 201.709 103.477C202.263 103.778 202.476 104.753 201.927 105.181C201.717 105.343 201.507 105.508 201.292 105.67C200.06 106.602 196.678 108.353 196.13 108.417C191.266 108.996 187.995 105.414 185.899 101.188C183.437 96.2282 184.077 90.1838 186.789 85.4605C188.964 81.6708 193.248 77.9362 191.545 73.1399C190.937 71.4266 189.695 69.9662 188.487 68.6468C187.111 67.1442 185.63 65.7372 184.31 64.1812C182.998 62.6364 181.834 60.9555 181.184 59.0169C180.236 56.1836 180.708 53.1201 181.42 50.2916C182.948 44.2196 184.931 38.2287 187.043 32.34Z" fill="black"/>
<path fill-rule="evenodd" clip-rule="evenodd" d="M210.889 60.8666C210.64 60.4343 210.068 60.0337 209.545 60.0952C207.2 60.3704 207.204 63.2157 208.11 64.8769C208.912 66.3498 210.574 67.2144 212.237 67.0881C213.984 66.9553 215.472 65.9274 216.127 64.2917C216.56 63.2097 216.761 61.2123 215.608 60.4853C215.587 60.4717 215.551 60.4751 215.534 60.4947C214.982 61.1381 214.96 62.104 214.476 62.8202C214.027 63.4864 213.328 64.0366 212.509 64.1215C211.897 64.185 211.279 63.9643 211.039 63.4148C210.91 63.1176 210.925 62.9562 210.973 62.7516L211.018 62.5739C211.171 61.9512 211.24 61.4771 210.889 60.8666ZM210.262 48.388C209.039 49.132 207.176 50.8669 208.491 52.7114C210.04 54.3377 212.269 52.473 213.368 51.6297C214.387 50.9761 215.532 52.657 214.586 53.4202C206.647 59.3034 203.425 48.5825 209.643 47.5132C210.328 47.3954 210.582 48.1578 210.262 48.388ZM223.176 43.2863C222.426 42.1591 220.712 42.3251 220.299 43.6626C220.075 44.3872 220.384 45.0385 220.368 45.762C220.355 46.3733 220.395 47.0544 220.582 47.6463C221.009 48.9962 222.222 49.9497 223.657 49.9101C225.087 49.8707 226.347 48.9646 226.946 47.6885C227.547 46.4075 227.42 45.0817 226.981 43.7792C226.96 43.7166 226.878 43.6863 226.828 43.739C226.31 44.2908 225.93 44.8733 225.537 45.4912L225.134 46.1245C224.826 46.6014 224.379 47.2106 223.805 47.1723L223.718 47.1638C223.559 47.1501 223.583 47.1818 223.46 46.9639C223.403 46.8631 223.413 46.6757 223.386 46.5568L223.376 46.5166L223.381 46.4949C223.394 46.4373 223.406 46.3287 223.415 46.1403L223.418 46.0987C223.459 45.2174 223.708 44.0849 223.176 43.2863ZM204.149 44.0367C204.283 42.595 202.258 42.2749 201.585 43.3416C201.234 43.8979 201.132 44.5967 201.054 45.2587L201.018 45.573C200.938 46.2529 200.906 46.9603 201.201 47.5946C201.666 48.5935 202.676 49.1216 203.765 49.038C204.806 48.9579 205.755 48.3541 206.256 47.4375C206.702 46.6196 207.145 45.0227 206.604 44.1696C206.571 44.1179 206.505 44.1112 206.461 44.1511C205.948 44.6061 205.865 45.436 205.561 46.0288C205.247 46.6402 204.77 47.236 204.048 47.3289C203.358 47.4177 203.094 47.0402 203.27 46.3813C203.498 45.5306 204.063 44.952 204.149 44.0367ZM222.629 34.7154L222.298 34.5885C221.163 34.1595 219.606 33.6636 218.683 34.587C218.114 35.1565 218.006 35.9953 218.412 36.6902C218.904 37.5319 219.787 37.5527 220.639 37.6767C221.609 37.8177 222.595 38.0858 223.498 38.468C224.515 38.8987 225.458 39.4355 226.383 40.0351C227.262 40.6048 228.137 41.536 229.189 41.7116C229.232 41.7187 229.281 41.7002 229.292 41.6531C229.531 40.6238 228.867 39.6109 228.275 38.8079C227.558 37.8357 226.689 37.0377 225.719 36.3222C224.782 35.6316 223.711 35.1325 222.629 34.7154ZM202.018 38.3749L201.917 38.3571C201.229 38.2425 200.606 38.2689 200.087 38.8143C199.691 39.2304 199.539 39.7697 199.728 40.3198C199.902 40.8273 200.291 41.3429 200.856 41.4493C202.764 41.8085 204.877 41.7491 206.794 41.4771C207.671 41.3526 208.556 41.2003 209.41 40.9601L209.803 40.846C210.517 40.6421 211.333 40.4291 211.851 39.904C212.037 39.7154 211.93 39.4453 211.707 39.358C210.803 39.0036 209.564 39.1921 208.6 39.1644C207.479 39.1323 206.356 39.0482 205.24 38.9323C204.149 38.8188 203.094 38.5723 202.018 38.3749Z" fill="black"/>
</svg>
