<svg width="245" height="182" viewBox="0 0 245 182" fill="none" xmlns="http://www.w3.org/2000/svg">
<path d="M74.1715 115.684C77.3693 120.285 79.6242 126.047 78.6562 131.243C77.7161 136.452 73.553 141.094 68.6576 144.914C63.762 148.735 58.1292 151.665 53.2001 150.811C48.2825 149.928 44.0636 145.194 39.8892 140.898C35.7266 136.575 31.5805 132.68 30.0859 127.753C28.619 122.837 29.8152 116.862 32.7716 111.749C35.7118 106.597 40.4123 102.306 45.6863 101.169C50.9879 100.042 56.863 102.068 61.8456 104.822C66.8559 107.588 70.9736 111.083 74.1715 115.684Z" fill="#9FD8E5"/>
<path d="M82.1152 31.9444C87.0978 39.1361 90.6064 48.1459 89.086 56.2776C87.609 64.4273 81.1028 71.6988 73.4548 77.6844C65.8069 83.67 57.01 88.2652 49.3183 86.937C41.6446 85.5655 35.0687 78.1664 28.5616 71.4545C22.0725 64.6994 15.6087 58.6136 13.2852 50.9078C11.0049 43.2201 12.883 33.8694 17.5068 25.8647C22.1054 17.7988 29.4497 11.079 37.6832 9.28895C45.9601 7.51702 55.126 10.675 62.8974 14.9749C70.7122 19.2928 77.1327 24.7527 82.1152 31.9444Z" fill="#9093D1"/>
<path d="M128.076 123.141C129.675 125.44 130.802 128.321 130.318 130.919C129.848 133.524 127.766 135.845 125.319 137.756C122.871 139.665 120.054 141.131 117.59 140.703C115.131 140.263 113.022 137.895 110.935 135.748C108.853 133.586 106.78 131.638 106.033 129.175C105.3 126.717 105.897 123.729 107.376 121.173C108.846 118.597 111.196 116.452 113.833 115.883C116.484 115.32 119.421 116.332 121.912 117.71C124.418 119.092 126.476 120.84 128.076 123.141Z" fill="#9093D1"/>
<path d="M159.34 16.4915C161.918 20.1999 163.736 24.8441 162.955 29.0328C162.197 33.2308 158.842 36.9734 154.895 40.0526C150.95 43.1318 146.409 45.494 142.437 44.8049C138.472 44.0937 135.073 40.2774 131.707 36.8153C128.352 33.331 125.011 30.1915 123.806 26.2199C122.623 22.2576 123.588 17.441 125.97 13.3197C128.341 9.16678 132.13 5.70902 136.38 4.79181C140.653 3.88392 145.389 5.51658 149.405 7.73673C153.444 9.96621 156.763 12.7831 159.34 16.4915Z" fill="#9093D1"/>
<path d="M143.231 68.1642C146.429 72.765 148.684 78.5268 147.716 83.7234C146.776 88.9317 142.613 93.5748 137.717 97.395C132.822 101.215 127.189 104.146 122.26 103.291C117.342 102.409 113.123 97.674 108.949 93.3788C104.786 89.056 100.64 85.1609 99.1458 80.2336C97.6789 75.3178 98.875 69.3423 101.831 64.2291C104.771 59.0769 109.473 54.787 114.746 53.6491C120.048 52.5228 125.923 54.5483 130.906 57.3026C135.916 60.0686 140.033 63.5636 143.231 68.1642Z" fill="#F7859C"/>
<path d="M225.765 116.821C230.748 124.012 234.256 133.023 232.736 141.155C231.259 149.303 224.753 156.575 217.105 162.561C209.457 168.546 200.66 173.141 192.968 171.813C185.295 170.442 178.719 163.043 172.212 156.331C165.723 149.576 159.259 143.49 156.935 135.784C154.656 128.097 156.533 118.745 161.157 110.741C165.755 102.675 173.1 95.9554 181.333 94.1655C189.61 92.3936 198.777 95.5515 206.548 99.8514C214.363 104.169 220.783 109.629 225.765 116.821Z" fill="#FFDBB4"/>
</svg>
